<?xml version="1.0" standalone="no"?><!DOCTYPE svg PUBLIC "-//W3C//DTD SVG 20010904//EN" "http://www.w3.org/TR/2001/REC-SVG-20010904/DTD/svg10.dtd"><svg xmlns="http://www.w3.org/2000/svg" version="1.0" width="378" height="380" viewBox="157.5 20.25 283.5 285" preserveAspectRatio="xMidYMid meet">
<g transform="translate(0.000000,327.000000) scale(0.100000,-0.100000)" fill="#000000" stroke="none">
<path d="M2063 3009 c-184 -31 -333 -162 -394 -344 -10 -31 -15 -187 -19 -688 -4 -573 -3 -647 10 -641 76 31 283 92 365 106 17 3 15 6 -12 21 -31 17 -33 16 -43 -4 -9 -16 -18 -19 -36 -15 -14 4 -24 2 -24 -4 0 -7 -8 -9 -21 -5 -13 4 -19 3 -15 -3 3 -5 -21 -15 -57 -22 -34 -6 -69 -14 -77 -18 -8 -3 -18 -4 -22 -4 -5 1 -8 -2 -8 -8 0 -5 -9 -10 -20 -10 -18 0 -19 9 -22 225 -2 124 1 225 5 225 5 0 5 5 1 12 -10 17 -12 118 -2 124 5 3 6 10 2 15 -6 11 -5 564 1 619 8 58 15 82 48 150 32 66 135 180 163 180 8 0 14 4 14 9 0 8 26 20 55 26 6 1 28 11 50 21 38 18 80 19 954 22 721 2 917 -1 929 -10 13 -10 14 -10 8 0 -8 13 25 18 38 5 4 -4 13 -8 19 -8 39 -2 86 -19 80 -28 -3 -6 -1 -7 6 -3 6 4 24 -2 40 -13 16 -12 32 -21 35 -21 14 0 66 -44 66 -56 0 -6 8 -14 18 -16 26 -7 85 -97 79 -120 -3 -10 -1 -16 3 -13 28 17 60 -168 50 -285 -1 -8 1 -54 5 -102 4 -54 2 -89 -4 -92 -6 -4 -7 -15 -2 -29 13 -34 13 -157 1 -157 -6 0 -8 -5 -4 -11 8 -14 8 -481 -1 -512 -5 -16 -4 -18 3 -8 7 10 10 -12 9 -67 -2 -77 -3 -82 -23 -82 -12 0 -35 7 -50 15 -16 8 -37 15 -47 15 -11 0 -33 6 -50 14 -18 8 -43 16 -57 18 -14 2 -24 6 -22 11 1 4 2 30 2 58 0 27 3 48 8 46 4 -3 7 11 7 31 0 35 2 37 29 34 18 -3 26 0 22 7 -4 6 -15 11 -25 11 -16 0 -18 11 -18 120 0 79 3 117 10 113 6 -3 7 -1 3 6 -4 6 -12 9 -17 6 -5 -4 -9 0 -9 8 0 8 -9 22 -20 32 -25 22 -27 9 -2 -18 14 -16 17 -39 17 -146 -1 -110 -16 -260 -31 -313 -4 -13 5 -19 38 -28 52 -13 218 -61 236 -67 9 -4 12 123 12 617 0 684 0 686 -62 802 -54 102 -157 187 -278 230 l-65 23 -915 2 c-503 0 -938 -3 -967 -8z"/>
<path d="M3572 2938 c-7 -7 -12 -17 -12 -23 0 -7 -9 -20 -21 -31 -19 -17 -19 -19 -3 -31 9 -7 22 -22 28 -34 15 -30 36 -36 36 -10 0 12 5 21 11 21 5 0 8 4 5 9 -3 5 2 8 11 7 24 -1 21 22 -6 67 -25 40 -31 43 -49 25z m28 -34 c0 -15 6 -24 15 -24 8 0 15 -4 15 -10 0 -5 -6 -10 -14 -10 -8 0 -17 -14 -21 -30 -8 -35 -25 -31 -25 6 0 15 -6 24 -15 24 -8 0 -15 5 -15 10 0 6 6 10 14 10 8 0 17 14 21 30 8 35 25 31 25 -6z"/>
<path d="M2208 2933 c-43 -7 -33 -22 11 -16 38 5 39 5 43 -31 4 -38 -4 -46 -48 -46 -21 0 -24 -3 -18 -25 5 -20 2 -25 -11 -25 -10 0 -23 -7 -29 -15 -6 -8 -33 -16 -61 -19 -27 -3 -50 -6 -50 -7 0 -3 -47 -11 -85 -14 -19 -1 -48 -8 -63 -14 -16 -6 -35 -11 -43 -11 -8 0 -14 -5 -14 -12 0 -6 -3 -9 -6 -5 -10 10 -39 -27 -53 -70 -9 -28 -11 -63 -7 -111 6 -66 9 -82 21 -134 3 -13 8 -45 12 -71 3 -26 10 -50 14 -53 12 -7 12 -3 -16 147 -14 74 -25 150 -25 170 0 43 33 96 75 120 25 15 180 45 335 65 111 15 415 73 362 70 -34 -2 -60 -1 -57 4 2 4 -7 5 -20 2 -14 -2 -23 -8 -20 -12 5 -8 -29 -18 -65 -19 -8 -1 -42 -5 -75 -10 -137 -21 -152 -22 -122 -10 15 6 27 17 27 24 0 19 22 24 38 8 19 -18 62 -17 62 2 0 8 5 15 10 15 14 0 -20 35 -42 43 -9 3 -18 18 -20 34 -3 29 -13 33 -60 26z m102 -98 c0 -18 -5 -25 -20 -25 -20 0 -28 28 -13 43 15 16 33 6 33 -18z"/>
<path d="M2343 2901 c0 -14 1 -18 4 -8 5 20 14 22 31 5 7 -7 12 -8 12 -2 0 6 -10 15 -23 21 -21 10 -23 8 -24 -16z"/>
<path d="M2162 2905 c2 -12 -6 -28 -20 -39 -15 -12 -20 -22 -13 -30 5 -6 11 -20 14 -31 4 -11 5 -3 4 18 -2 29 1 37 14 37 26 0 29 12 13 40 -12 21 -14 21 -12 5z"/>
<path d="M2562 2908 c-7 -7 -12 -21 -12 -32 0 -17 2 -18 9 -6 6 8 7 18 5 22 -3 5 5 12 18 17 14 6 17 10 8 10 -9 1 -21 -4 -28 -11z"/>
<path d="M3156 2905 c-3 -8 -2 -23 1 -32 5 -12 0 -10 -16 6 -18 18 -25 20 -37 10 -16 -13 -19 -39 -4 -39 6 0 10 -7 10 -15 0 -8 -9 -15 -20 -15 -25 0 -26 -22 -2 -43 26 -23 52 -22 52 3 0 11 7 20 15 20 8 0 15 6 15 14 0 10 7 13 20 11 11 -2 37 7 57 21 40 27 92 30 156 11 44 -14 119 -71 141 -109 14 -23 19 -25 41 -15 31 15 32 24 3 22 -27 -3 -101 62 -91 79 3 6 3 8 -2 4 -4 -4 -26 2 -48 14 -58 29 -144 35 -188 13 -19 -10 -36 -22 -40 -26 -3 -5 -5 7 -6 25 -1 19 -4 39 -8 45 -9 16 -42 13 -49 -4z m38 -27 c3 -17 4 -34 1 -37 -9 -8 -25 21 -25 47 0 33 17 27 24 -10z m-55 -24 c25 -41 25 -44 9 -44 -22 1 -54 80 -32 80 1 0 11 -16 23 -36z m-19 -59 c7 -9 10 -18 7 -21 -6 -7 -47 18 -47 28 0 14 27 9 40 -7z"/>
<path d="M3787 2852 c-65 -65 -81 -92 -54 -92 33 -1 39 -16 21 -59 -9 -23 -14 -44 -11 -48 7 -7 69 42 121 96 l40 41 -32 11 c-18 6 -32 12 -32 14 0 1 7 22 15 46 9 23 12 46 7 51 -4 4 -38 -23 -75 -60z m48 -5 c-21 -50 -19 -55 16 -59 l32 -3 -63 -54 c-56 -49 -61 -51 -46 -23 23 45 21 62 -9 62 -14 0 -25 3 -25 7 0 9 103 114 107 109 2 -1 -4 -19 -12 -39z"/>
<path d="M3785 2801 c-3 -5 -1 -12 5 -16 5 -3 10 1 10 9 0 18 -6 21 -15 7z"/>
<path d="M2610 2902 c0 -6 -10 -20 -22 -32 -19 -17 -19 -20 -5 -20 17 0 43 47 32 58 -3 3 -5 0 -5 -6z"/>
<path d="M2448 2883 c19 -3 32 -10 32 -19 0 -8 4 -14 9 -14 5 0 7 9 4 20 -4 16 -13 20 -42 18 l-36 -1 33 -4z"/>
<path d="M2926 2866 c-3 -14 -15 -28 -26 -31 -26 -8 -26 -31 0 -45 12 -6 20 -21 20 -35 0 -27 21 -33 39 -12 6 8 23 12 41 9 31 -4 39 9 21 37 -6 9 -4 22 5 36 17 26 10 35 -27 35 -15 0 -29 7 -33 15 -9 23 -33 18 -40 -9z m38 -12 c4 -11 14 -15 31 -12 28 6 32 -4 10 -22 -11 -9 -13 -16 -5 -24 17 -17 12 -35 -10 -29 -12 3 -29 -2 -40 -12 -19 -18 -20 -17 -20 8 0 17 -8 31 -22 38 l-23 12 28 10 c17 5 27 16 27 28 0 23 16 25 24 3z"/>
<path d="M2360 2870 c0 -5 7 -7 15 -4 8 4 15 8 15 10 0 2 -7 4 -15 4 -8 0 -15 -4 -15 -10z"/>
<path d="M2450 2854 c0 -8 5 -12 10 -9 6 4 8 11 5 16 -9 14 -15 11 -15 -7z"/>
<path d="M1968 2830 c-16 -16 -28 -31 -28 -33 0 -3 15 -14 33 -24 31 -19 63 -20 52 -3 -3 5 5 16 17 25 17 13 19 18 9 22 -7 3 -22 14 -32 24 -11 11 -20 19 -21 19 -2 -1 -15 -14 -30 -30z m61 -10 c16 0 14 -17 -4 -24 -8 -3 -15 -13 -15 -23 -1 -17 -1 -17 -11 0 -5 9 -19 17 -29 17 -26 0 -26 16 0 23 11 3 20 13 20 24 1 17 1 17 14 1 7 -10 18 -18 25 -18z"/>
<path d="M2426 2847 c3 -10 9 -15 12 -12 3 3 0 11 -7 18 -10 9 -11 8 -5 -6z"/>
<path d="M2697 2853 c-4 -3 -24 -10 -44 -14 -30 -7 -26 -7 20 -4 67 6 118 -11 141 -48 9 -13 30 -98 46 -188 17 -90 33 -171 37 -179 3 -8 6 -28 5 -45 -1 -22 2 -26 9 -15 8 13 10 13 18 1 11 -17 3 -43 -10 -35 -5 3 -9 -6 -9 -20 0 -14 5 -28 10 -31 6 -3 10 3 10 15 0 12 5 30 11 41 8 15 7 24 -2 36 -7 8 -14 22 -15 31 -2 8 -6 18 -11 21 -9 7 -14 31 -14 74 0 15 -5 27 -10 27 -6 0 -3 7 5 16 9 8 16 23 16 32 1 25 52 95 78 107 12 5 22 17 21 25 0 9 -2 10 -5 3 -3 -7 -12 -9 -21 -6 -10 4 -14 2 -10 -4 4 -5 -5 -15 -18 -21 -14 -7 -24 -17 -23 -24 2 -7 -2 -12 -9 -11 -6 2 -11 -5 -11 -15 0 -9 -5 -30 -12 -47 l-13 -30 -8 35 c-4 19 -10 49 -13 65 -2 17 -5 30 -6 30 -1 0 -3 15 -6 33 -10 79 -48 127 -110 138 -15 3 -31 7 -34 9 -4 3 -10 2 -13 -2z"/>
<path d="M3973 2853 c-17 -6 -16 -38 1 -52 11 -10 19 -7 36 11 20 21 20 23 4 35 -19 14 -22 14 -41 6z m27 -29 c0 -8 -7 -14 -15 -14 -15 0 -21 21 -9 33 10 9 24 -2 24 -19z"/>
<path d="M3670 2841 c0 -8 -6 -11 -16 -7 -12 4 -15 2 -11 -9 4 -8 2 -17 -3 -20 -6 -4 -10 1 -10 10 0 9 -5 13 -10 10 -15 -9 7 -35 23 -29 16 6 40 44 33 52 -3 3 -6 0 -6 -7z"/>
<path d="M3256 2825 c-24 -18 -25 -74 -2 -107 23 -33 20 -38 -15 -26 -37 13 -92 -1 -133 -33 -40 -31 -34 -55 16 -63 22 -4 53 -14 68 -23 l28 -16 -59 -29 c-47 -24 -62 -27 -78 -18 -28 15 -51 62 -51 105 0 64 -44 57 -79 -14 -38 -76 -34 -161 11 -224 l20 -28 -21 -49 c-34 -78 -51 -182 -51 -308 0 -113 -1 -118 -30 -162 -16 -25 -30 -54 -30 -65 0 -14 11 -4 33 31 l33 51 21 -111 c20 -103 20 -112 5 -129 -15 -17 -17 -17 -29 -1 -9 13 -10 21 -2 31 8 9 8 13 0 13 -6 0 -11 -5 -11 -11 0 -5 -4 -7 -10 -4 -16 10 -12 -5 11 -42 23 -37 20 -63 -9 -63 -25 0 -69 46 -50 53 9 3 8 4 -2 3 -8 -1 -15 -6 -15 -13 0 -22 -46 -73 -65 -73 -25 0 -26 29 -5 70 9 17 11 30 6 30 -12 0 -41 -53 -41 -75 0 -8 -9 -15 -20 -15 -16 0 -20 7 -20 31 0 23 10 41 36 65 20 19 40 32 45 29 5 -4 9 -1 9 5 0 6 5 8 10 5 6 -3 10 -1 10 4 0 19 -24 11 -72 -24 -26 -19 -50 -46 -54 -60 -8 -30 -24 -33 -24 -4 0 20 44 70 85 97 19 12 19 13 -5 8 -14 -3 -149 -31 -300 -61 -151 -31 -282 -58 -290 -60 -8 -3 -21 -1 -28 4 -11 7 -192 960 -192 1013 0 9 4 19 9 22 5 4 78 17 163 31 84 14 263 43 397 65 179 29 248 37 257 29 8 -6 16 -25 19 -43 3 -17 30 -168 60 -335 59 -326 67 -433 39 -476 -9 -14 -24 -25 -33 -25 -9 0 -23 -6 -30 -12 -11 -11 -15 -10 -19 2 -3 8 -20 43 -38 77 l-33 63 27 -6 c21 -4 24 -3 12 5 -8 6 -23 11 -32 11 -10 0 -18 7 -18 15 0 18 33 20 63 3 20 -10 21 -10 8 5 -7 10 -24 17 -37 17 -15 0 -24 6 -24 15 0 10 10 15 31 15 19 0 28 4 23 11 -3 6 -16 8 -28 6 -18 -5 -26 4 -50 56 -17 34 -29 72 -28 84 4 39 -17 146 -32 161 -13 13 -22 7 -76 -47 -57 -56 -65 -61 -106 -61 -24 0 -62 -7 -84 -16 -39 -16 -43 -15 -111 10 -99 37 -103 36 -95 -21 3 -25 16 -69 29 -97 19 -42 22 -62 17 -115 -5 -58 -7 -64 -35 -77 -25 -12 -26 -13 -5 -8 43 9 53 9 56 -1 2 -5 -10 -18 -27 -28 -18 -10 -29 -20 -26 -23 3 -4 19 3 36 15 22 16 32 18 37 9 4 -7 -1 -17 -14 -26 -12 -8 -22 -19 -22 -25 0 -6 12 0 26 14 l27 24 -8 -30 c-14 -53 -21 -165 -11 -162 5 2 10 14 11 28 1 13 5 53 9 87 8 59 10 63 30 57 29 -9 38 -9 63 -1 18 6 22 4 17 -8 -3 -8 -11 -13 -18 -10 -6 2 -20 -3 -31 -11 -19 -16 -19 -16 3 -5 12 6 27 8 32 5 6 -4 13 0 16 8 3 9 14 12 30 9 15 -3 24 0 24 8 0 7 -7 10 -17 5 -15 -5 -16 -4 -5 7 11 11 16 10 26 -4 7 -10 15 -16 17 -14 2 3 22 7 44 9 58 7 80 17 63 29 -9 7 -1 8 24 4 21 -2 40 -1 43 5 3 5 -1 6 -9 3 -9 -3 -16 -2 -16 4 0 6 -15 6 -42 -1 -24 -5 -68 -10 -100 -11 -31 -1 -56 -5 -55 -11 2 -11 -44 -16 -90 -9 -41 6 -42 18 -3 34 24 10 37 10 56 1 23 -10 25 -9 19 9 -4 14 4 36 25 68 28 41 31 54 28 99 -7 84 -51 114 -81 57 -7 -14 -28 -32 -47 -42 -43 -21 -66 -65 -54 -100 5 -14 15 -27 22 -30 11 -3 12 0 3 16 -19 35 -12 49 10 20 15 -20 30 -28 52 -28 47 0 29 -7 -38 -15 -32 -3 -63 -9 -67 -11 -4 -3 -8 22 -8 56 0 56 19 116 41 130 4 3 4 12 -1 20 -7 11 -11 11 -24 1 -9 -7 -13 -17 -10 -22 3 -5 1 -16 -4 -25 -7 -12 -14 -2 -30 44 -33 89 -30 100 16 67 20 -16 45 -37 54 -49 l17 -21 23 21 c34 31 61 43 123 55 41 7 66 7 91 -1 28 -9 38 -9 51 2 14 11 16 11 11 -3 -5 -13 -2 -16 15 -11 12 3 19 2 15 -2 -3 -4 8 -27 26 -50 46 -61 63 -105 45 -117 -22 -14 -26 -11 -21 21 3 23 -3 36 -27 60 -26 26 -38 31 -70 29 -27 -2 -46 3 -59 14 -23 21 -38 22 -46 1 -19 -50 19 -137 71 -162 24 -11 36 -25 40 -45 l6 -28 21 21 c23 21 61 27 71 11 3 -5 -7 -19 -21 -30 -15 -12 -22 -21 -17 -21 6 0 22 9 36 20 l25 20 20 -33 c12 -17 29 -53 40 -78 21 -49 46 -68 56 -43 3 9 15 14 28 12 16 -2 27 6 41 30 16 27 20 56 22 160 2 70 8 141 13 158 8 24 -2 92 -42 313 -57 316 -63 331 -135 331 -56 0 -812 -121 -848 -135 -44 -19 -68 -59 -67 -115 1 -39 48 -302 156 -878 33 -177 47 -207 101 -217 30 -6 260 35 314 56 52 19 14 -11 -118 -96 -281 -181 -274 -175 -277 -220 -6 -78 -80 -56 833 -254 182 -40 389 -85 461 -102 215 -48 224 -45 364 99 360 368 350 356 350 400 0 32 -6 45 -26 61 -15 12 -35 21 -44 21 -26 0 -34 58 -14 106 25 60 16 154 -24 238 -25 53 -32 82 -32 128 l0 61 32 -7 c111 -22 162 -58 174 -122 6 -32 -20 -334 -32 -376 -4 -15 -8 -15 -39 -2 -36 15 -84 19 -71 7 4 -4 34 -15 66 -24 l58 -16 6 31 c11 61 36 292 36 335 0 72 -32 126 -93 155 -29 13 -71 27 -93 31 l-41 6 -6 112 c-3 62 -9 123 -14 137 -8 20 -6 28 13 43 13 10 36 38 50 62 43 74 31 199 -25 249 -29 27 -51 14 -51 -30 0 -28 -8 -44 -35 -71 -40 -40 -48 -40 -36 3 16 57 -21 126 -52 95 -17 -17 -26 -13 -20 8 6 24 -14 90 -35 114 -25 28 -48 21 -65 -20 l-14 -37 -12 36 c-16 49 -73 113 -124 137 -52 25 -142 28 -171 6z m152 -21 c67 -28 111 -82 137 -169 l12 -40 27 54 c25 48 29 52 43 39 19 -20 35 -94 28 -130 -8 -34 1 -35 32 -6 20 19 25 20 33 8 11 -17 13 -70 4 -93 -4 -12 -16 -8 -61 19 -31 19 -72 37 -91 40 -79 15 -184 -13 -239 -65 l-21 -20 -27 55 c-31 64 -78 103 -143 119 l-47 12 35 22 c41 25 112 28 153 7 15 -8 27 -13 27 -11 0 1 -11 27 -25 57 -27 59 -31 88 -13 106 17 17 92 15 136 -4z m-659 -19 c36 -18 38 -23 66 -185 13 -74 35 -196 49 -272 18 -102 23 -148 16 -185 -4 -26 -8 -42 -9 -35 -1 11 -46 265 -89 500 -11 60 -25 108 -33 113 -8 6 -39 8 -70 5 -62 -6 -723 -113 -752 -122 -44 -14 -44 -12 37 -449 7 -38 35 -189 61 -335 26 -146 52 -271 57 -277 16 -20 58 -15 258 26 102 22 186 38 188 36 8 -8 -94 -57 -135 -65 -26 -5 -102 -20 -168 -34 -80 -16 -125 -22 -136 -15 -10 5 -24 6 -33 3 -19 -7 -42 28 -55 86 -10 42 -33 169 -141 767 -37 203 -42 265 -21 278 4 2 6 -8 3 -23 -2 -15 33 -228 78 -472 44 -245 87 -480 95 -523 7 -43 19 -85 26 -93 17 -20 22 -11 9 17 -5 13 -53 259 -105 546 -101 557 -101 558 -51 581 13 5 137 28 277 51 303 49 543 88 547 90 2 1 16 -6 31 -14z m261 -175 c0 -26 -4 -30 -26 -30 l-25 0 21 30 c12 17 23 30 26 30 2 0 4 -13 4 -30z m869 -72 c22 -45 17 -54 -22 -44 -20 5 -22 11 -19 46 2 22 8 40 12 40 4 0 17 -19 29 -42z m-861 12 c1 -9 -15 -24 -39 -37 l-40 -22 6 32 c4 18 9 36 12 40 8 14 58 3 61 -13z m268 -101 l17 -39 35 32 c98 85 228 92 333 17 22 -15 27 -25 20 -32 -18 -18 -13 -89 9 -124 24 -40 64 -67 89 -60 17 4 20 -4 30 -70 6 -40 11 -127 11 -191 -1 -99 -3 -114 -14 -99 -21 28 -30 20 -10 -10 133 -202 123 -365 -25 -418 -51 -18 -156 -21 -145 -4 4 7 -1 7 -16 -1 -13 -7 -37 -10 -54 -7 -19 3 -39 -1 -50 -9 -13 -9 -24 -10 -37 -3 -26 13 -24 28 8 61 15 15 21 28 14 28 -6 0 -22 -11 -35 -25 -27 -29 -41 -32 -50 -9 -8 20 9 54 42 81 18 15 22 23 12 23 -8 0 -27 -11 -42 -25 -30 -28 -39 -30 -55 -14 -17 17 10 65 50 89 38 24 116 26 156 6 24 -13 37 -13 92 -1 35 7 67 11 72 8 4 -2 7 1 7 6 0 6 -14 11 -30 11 -26 0 -31 5 -37 30 -9 48 -26 49 -18 1 l7 -41 -39 1 c-91 2 -91 5 -3 107 44 51 80 97 80 103 0 25 -22 49 -45 49 -19 0 -48 -28 -127 -119 -57 -66 -110 -120 -119 -120 -66 -4 -111 -51 -91 -95 9 -20 7 -27 -7 -40 -16 -15 -30 -14 -171 12 l-153 28 -14 44 c-25 84 -53 272 -53 360 0 179 54 351 140 444 23 25 69 59 103 76 l61 30 17 -26 c9 -15 25 -44 35 -65z m-264 26 c-17 -14 -34 -35 -37 -45 -9 -29 -21 -24 -32 13 -9 30 -7 33 31 58 34 23 43 25 55 14 12 -12 9 -18 -17 -40z m58 9 c0 -3 -18 -26 -40 -51 -22 -25 -40 -50 -40 -55 0 -5 -4 -6 -10 -3 -18 11 -11 30 26 73 31 36 64 55 64 36z m796 -4 c22 0 24 -4 24 -45 0 -50 -18 -59 -55 -27 -40 33 -49 50 -35 67 7 9 20 13 27 10 8 -3 26 -5 39 -5z m-60 -65 c19 -19 44 -35 54 -35 27 0 25 -10 -10 -59 -38 -53 -71 -69 -103 -52 -62 33 -82 159 -26 161 4 0 9 -16 12 -37 7 -38 51 -93 75 -93 9 0 4 8 -12 21 -30 24 -56 69 -56 98 0 16 8 25 28 30 1 1 18 -15 38 -34z m-1189 -160 c5 -50 3 -66 -5 -61 -7 4 -12 14 -12 22 0 8 -7 14 -16 14 -8 0 -13 4 -9 9 3 5 -3 11 -14 13 -18 3 -18 5 6 46 15 25 29 40 35 34 4 -4 11 -39 15 -77z m-78 21 c-11 -20 -25 -33 -30 -30 -5 3 3 21 17 40 34 44 42 38 13 -10z m-260 -71 c2 -3 0 -9 -5 -15 -5 -5 -23 3 -44 21 l-35 30 39 -16 c22 -9 42 -18 45 -20z m201 -54 c0 -8 18 -11 70 -11 52 0 64 -12 65 -67 1 -26 0 -42 -2 -36 -3 9 -11 8 -29 -4 -14 -8 -27 -13 -30 -10 -3 3 4 8 15 12 19 6 47 72 36 84 -3 2 -31 -4 -63 -15 -81 -27 -89 -28 -76 -14 7 6 9 21 6 33 -5 20 -6 20 -13 1 -6 -15 -8 -12 -8 13 -1 25 3 31 14 27 8 -4 15 -9 15 -13z m-91 -45 c0 -21 -1 -21 -10 -1 -7 16 -8 13 -4 -12 l5 -33 -45 0 c-24 0 -55 -4 -69 -10 -30 -11 -33 -4 -10 21 9 10 22 15 29 13 7 -3 28 10 46 30 36 37 60 34 58 -8z m201 -18 c0 -37 -64 -61 -100 -38 -13 9 -13 11 0 19 10 7 20 5 32 -6 16 -14 18 -14 27 11 10 26 41 37 41 14z m-230 -80 c-12 -10 -29 -18 -37 -18 -23 0 -53 20 -53 35 0 20 36 19 44 0 7 -19 26 -20 26 -1 0 17 33 27 39 12 2 -5 -6 -18 -19 -28z m308 -5 c-3 -14 -12 -17 -53 -14 -72 4 -75 16 -8 32 59 14 67 12 61 -18z m-328 -54 c0 -5 -21 -9 -47 -9 -27 0 -55 -5 -63 -11 -11 -7 -4 -8 25 -4 l40 6 -28 -16 c-30 -17 -57 -7 -57 21 0 12 13 14 108 20 12 1 22 -2 22 -7z m1331 -88 c-11 -21 -13 -21 -36 -4 l-24 18 21 18 c19 16 23 16 36 4 11 -12 11 -19 3 -36z m-37 -24 c16 -25 0 -31 -22 -9 -11 11 -18 23 -14 26 9 9 24 2 36 -17z m-24 -22 c18 -22 -74 -134 -112 -134 -14 -1 -34 -4 -44 -8 -10 -4 13 30 51 75 39 45 75 82 81 82 6 0 17 -7 24 -15z m-225 -171 c-11 -8 -28 -25 -37 -37 -15 -18 -18 -19 -18 -5 0 21 38 58 59 58 13 -1 12 -4 -4 -16z m-750 -25 c-7 -10 -45 -28 -55 -25 -3 0 -16 -9 -30 -21 -13 -13 -27 -24 -32 -24 -4 -1 -12 -2 -18 -3 -5 0 -9 -5 -7 -9 2 -10 -53 -43 -66 -39 -4 1 -10 -5 -13 -13 -3 -8 -11 -12 -17 -8 -6 4 -7 1 -3 -6 6 -8 2 -11 -10 -9 -11 2 -19 -3 -19 -12 0 -8 -10 -15 -21 -16 -26 -1 -69 -30 -69 -46 0 -6 -6 -13 -14 -16 -8 -3 -11 0 -7 7 4 6 -9 2 -28 -10 -20 -12 -39 -25 -42 -30 -3 -5 11 0 30 12 65 38 37 12 -49 -47 -78 -53 -98 -75 -77 -88 4 -2 114 -27 243 -55 758 -163 1046 -221 1064 -217 11 3 76 60 144 126 69 66 126 120 128 120 2 0 -2 -9 -9 -20 -11 -16 -9 -22 7 -34 18 -13 22 -12 42 6 26 24 16 48 -21 48 -16 0 -1 20 68 89 56 57 87 95 83 104 -5 14 -47 26 -96 28 l-26 0 25 11 c18 7 46 6 95 -2 87 -15 115 -26 115 -42 0 -7 -102 -116 -228 -241 -165 -165 -236 -230 -261 -237 -32 -9 -208 23 -571 105 -66 15 -314 69 -673 146 -109 24 -206 49 -215 55 -16 12 -15 14 3 32 47 45 588 392 612 392 14 0 22 -4 18 -11z m-21 -41 c-2 -7 -20 -23 -40 -36 -19 -13 -34 -28 -31 -35 6 -19 67 -29 124 -19 29 5 53 6 53 2 0 -4 10 -10 23 -14 17 -5 29 2 54 30 30 33 33 35 48 20 20 -20 61 -21 72 -1 12 21 336 -32 329 -55 -3 -8 -13 -36 -23 -62 -9 -26 -14 -50 -11 -53 11 -11 108 47 129 77 26 36 61 36 93 2 17 -19 32 -26 52 -24 102 10 254 -2 333 -26 23 -7 -408 -423 -438 -423 -13 -1 -195 35 -405 80 -685 144 -760 160 -818 171 -32 7 -58 15 -58 19 0 5 93 73 207 151 115 79 228 157 253 175 49 35 62 40 54 21z m665 -64 c1 -2 1 -7 -2 -11 -4 -7 -307 42 -355 56 -2 1 -1 5 2 9 4 7 342 -45 355 -54z m-640 6 c6 0 11 -7 11 -16 0 -13 -7 -15 -42 -9 -60 10 -64 15 -31 36 25 17 29 17 39 4 6 -8 16 -15 23 -15z m738 -1 c6 -2 -6 -23 -28 -48 l-40 -45 -20 21 -20 20 33 40 c28 34 35 39 48 28 8 -7 20 -14 27 -16z m492 -83 c-2 -2 -17 -2 -33 1 l-29 6 24 18 c23 18 24 18 33 -2 5 -10 7 -21 5 -23z m-590 -34 c-28 -19 -45 -3 -29 28 11 21 12 21 31 4 19 -17 19 -17 -2 -32z m-959 8 c-14 -11 -29 -20 -35 -20 -5 0 4 9 20 20 38 25 48 25 15 0z m1598 -138 c-207 -218 -396 -403 -423 -416 -18 -9 -45 -16 -59 -16 -15 0 -275 54 -579 120 -818 178 -849 186 -864 206 -17 23 -13 26 23 14 26 -9 443 -102 719 -160 265 -56 526 -112 582 -125 79 -19 146 -19 181 -1 15 8 101 89 191 180 91 91 168 163 173 160 5 -3 7 -1 6 4 -2 5 17 31 42 58 28 30 46 44 48 35 2 -7 -16 -34 -40 -59z m-217 -107 c0 -5 -9 -11 -21 -13 -20 -3 -27 8 -13 22 10 9 34 3 34 -9z"/>
<path d="M3306 2791 c-4 -5 -2 -12 4 -16 5 -3 10 -1 10 5 0 6 11 5 29 -5 17 -8 37 -12 46 -9 9 4 28 -2 43 -13 43 -31 59 -38 36 -16 -43 42 -154 78 -168 54z"/>
<path d="M3297 2754 c-3 -4 2 -28 12 -55 10 -26 16 -51 12 -55 -3 -4 0 -4 7 0 8 5 9 13 3 24 -4 9 -6 23 -4 30 3 6 -1 12 -7 12 -8 0 -11 10 -8 25 5 24 -2 32 -15 19z"/>
<path d="M3340 2740 c0 -5 5 -10 11 -10 5 0 7 5 4 10 -3 6 -8 10 -11 10 -2 0 -4 -4 -4 -10z"/>
<path d="M3415 2700 c3 -5 8 -10 11 -10 2 0 4 5 4 10 0 6 -5 10 -11 10 -5 0 -7 -4 -4 -10z"/>
<path d="M3170 2643 c0 -5 20 -7 45 -6 28 0 51 -5 60 -13 7 -8 17 -14 22 -14 4 1 -3 10 -16 20 -23 20 -111 29 -111 13z"/>
<path d="M3392 2594 c0 -41 2 -53 8 -39 11 27 12 67 1 84 -6 9 -9 -7 -9 -45z"/>
<path d="M3421 2635 c0 -11 4 -29 9 -40 8 -18 9 -18 9 5 0 14 -4 32 -9 40 -8 12 -10 12 -9 -5z"/>
<path d="M3498 2622 c-2 -18 0 -29 8 -29 7 0 10 10 7 26 -6 36 -10 37 -15 3z"/>
<path d="M3278 2571 c15 -16 31 -25 36 -20 5 5 -1 17 -15 28 -36 31 -52 25 -21 -8z"/>
<path d="M2527 2750 c-92 -15 -170 -30 -174 -33 -8 -8 78 -1 140 13 117 24 243 35 251 21 8 -13 26 -15 26 -3 0 10 -46 32 -63 31 -7 -1 -87 -14 -180 -29z"/>
<path d="M2317 2713 c-12 -11 -8 -23 8 -23 8 0 15 7 15 15 0 16 -12 20 -23 8z"/>
<path d="M2081 2679 c-186 -31 -212 -42 -210 -88 2 -24 2 -24 6 -3 6 28 38 50 83 56 19 2 46 7 60 10 24 5 55 9 170 23 30 3 69 12 85 19 29 13 29 13 5 13 -14 0 -104 -14 -199 -30z"/>
<path d="M3203 2500 c-13 -5 -23 -12 -23 -15 0 -9 16 -5 36 10 22 16 19 18 -13 5z"/>
<path d="M3100 2424 c-37 -32 -27 -55 15 -36 14 7 36 12 49 12 31 0 50 22 34 38 -20 20 -65 13 -98 -14z"/>
<path d="M3597 2416 c10 -13 21 -22 25 -20 11 7 -15 44 -30 44 -9 0 -8 -7 5 -24z"/>
<path d="M3457 2386 c-8 -19 12 -36 44 -36 14 0 38 -9 53 -21 50 -39 64 4 15 45 -34 29 -103 37 -112 12z"/>
<path d="M3045 2354 c-9 -15 -12 -23 -6 -20 11 7 35 46 28 46 -3 0 -12 -12 -22 -26z"/>
<path d="M3080 2328 c-22 -15 -40 -38 -49 -64 -47 -134 129 -219 194 -94 56 108 -49 223 -145 158z m108 -23 c33 -27 46 -73 32 -107 -8 -20 -9 -18 -9 14 -1 20 -8 44 -17 52 -17 18 -74 22 -74 6 0 -5 7 -10 16 -10 21 0 14 -34 -9 -38 -10 -2 -17 3 -17 13 0 9 -4 13 -10 10 -16 -10 -12 -67 7 -87 18 -20 49 -23 73 -8 13 8 12 10 -2 10 -10 0 -18 7 -18 15 0 8 7 15 15 15 8 0 15 -7 15 -16 0 -9 5 -13 13 -9 6 4 -1 -5 -16 -19 -39 -36 -80 -34 -119 4 -28 28 -30 36 -25 78 4 36 12 53 36 74 39 35 71 35 109 3z m-44 -137 c-3 -4 -10 -8 -16 -8 -6 0 -8 3 -5 7 4 3 1 13 -6 21 -11 13 -9 14 10 2 12 -8 19 -18 17 -22z"/>
<path d="M3424 2271 c-18 -11 -35 -25 -40 -32 -4 -7 7 -2 26 11 18 13 49 27 69 31 35 6 35 7 6 8 -16 0 -44 -8 -61 -18z"/>
<path d="M3464 2239 c-29 -8 -84 -53 -84 -69 0 -18 15 -16 46 5 53 36 88 40 136 16 42 -21 61 -20 52 2 -13 35 -99 61 -150 46z"/>
<path d="M2982 2195 c0 -16 2 -22 5 -12 2 9 2 23 0 30 -3 6 -5 -1 -5 -18z"/>
<path d="M3770 2210 c-10 -7 -12 -12 -4 -17 6 -5 12 -15 12 -23 1 -8 6 -39 11 -68 6 -29 8 -76 7 -105 -2 -29 0 -61 5 -72 6 -13 7 33 4 123 -5 152 -11 177 -35 162z"/>
<path d="M3461 2171 c-10 -7 0 -9 32 -8 26 1 47 5 47 10 0 10 -62 9 -79 -2z"/>
<path d="M3710 2165 c0 -8 5 -15 10 -15 6 0 10 7 10 15 0 8 -4 15 -10 15 -5 0 -10 -7 -10 -15z"/>
<path d="M3749 2138 c8 -23 31 -37 31 -19 0 6 -4 11 -10 11 -5 0 -10 7 -10 15 0 8 -4 15 -10 15 -5 0 -6 -9 -1 -22z"/>
<path d="M2966 2122 c-2 -9 -7 -52 -11 -96 -5 -58 -4 -77 5 -71 6 4 11 19 10 33 -5 77 -1 92 26 92 14 0 32 6 39 14 12 12 12 16 -1 26 -8 7 -17 10 -21 7 -3 -4 -14 -2 -24 3 -13 8 -19 6 -23 -8z m31 -17 c0 -8 -6 -15 -14 -15 -14 0 -17 12 -6 23 11 11 20 8 20 -8z m33 6 c0 -6 -4 -13 -10 -16 -5 -3 -10 1 -10 9 0 9 5 16 10 16 6 0 10 -4 10 -9z"/>
<path d="M3580 2121 c0 -6 4 -13 10 -16 6 -3 7 1 4 9 -7 18 -14 21 -14 7z"/>
<path d="M3655 2119 c-17 -8 -16 -8 7 -4 14 3 29 0 31 -5 3 -6 4 -5 3 2 -3 16 -17 18 -41 7z"/>
<path d="M3750 2090 c6 -11 13 -20 16 -20 2 0 0 9 -6 20 -6 11 -13 20 -16 20 -2 0 0 -9 6 -20z"/>
<path d="M3524 2093 c11 -11 -72 -40 -157 -54 -84 -14 -162 -6 -264 27 -43 14 -55 15 -68 4 -8 -7 -15 -17 -15 -23 0 -6 3 -7 7 -3 4 3 13 -17 20 -46 34 -134 147 -210 288 -195 125 13 234 120 235 231 1 29 1 30 15 12 13 -17 15 -18 15 -3 0 24 -36 57 -62 57 -12 0 -18 -3 -14 -7z m26 -58 c0 -50 -37 -120 -55 -105 -18 15 -112 25 -127 13 -7 -6 -22 -9 -33 -7 -48 10 -107 -8 -145 -42 l-38 -34 -27 32 c-54 63 -88 176 -50 162 8 -4 15 -14 15 -24 0 -9 9 -29 20 -43 23 -29 52 -27 74 5 12 17 27 20 111 21 92 2 98 1 108 -20 13 -29 40 -37 69 -21 13 7 27 11 31 10 5 -1 6 2 3 7 -4 5 -2 12 3 16 6 3 8 12 4 20 -5 16 13 45 28 45 5 0 9 -16 9 -35z m-391 -5 c25 0 27 -13 5 -34 -25 -26 -44 -16 -59 32 -6 21 -5 23 13 13 12 -6 30 -11 41 -11z m328 -12 c-7 -18 -21 -34 -31 -36 -19 -4 -46 15 -46 32 0 10 43 28 83 35 4 0 1 -14 -6 -31z m-13 -101 l30 -13 -37 -28 c-70 -53 -150 -68 -243 -45 -52 13 -56 29 -13 60 36 25 137 41 107 16 -29 -23 -21 -30 10 -9 49 35 95 41 146 19z"/>
<path d="M3610 2092 c0 -5 7 -9 15 -9 8 0 12 4 9 9 -3 4 -9 8 -15 8 -5 0 -9 -4 -9 -8z"/>
<path d="M3779 2068 c-5 -17 -4 -48 3 -48 4 0 8 11 8 25 0 20 -7 34 -11 23z"/>
<path d="M3743 2003 c0 -32 2 -47 5 -33 2 14 9 28 16 32 8 6 8 8 0 8 -6 0 -10 11 -9 25 2 14 0 25 -4 25 -4 0 -7 -26 -8 -57z"/>
<path d="M3708 2015 c-6 -30 -3 -43 8 -33 3 4 4 19 2 35 l-3 28 -7 -30z"/>
<path d="M3730 1924 c0 -10 5 -26 10 -34 8 -11 9 -7 4 15 -8 37 -14 45 -14 19z"/>
<path d="M2962 1845 c0 -16 2 -22 5 -12 2 9 2 23 0 30 -3 6 -5 -1 -5 -18z"/>
<path d="M3000 1821 c0 -12 5 -21 10 -21 6 0 10 6 10 14 0 8 -4 18 -10 21 -5 3 -10 -3 -10 -14z"/>
<path d="M3789 1826 c20 -23 59 -106 47 -99 -8 5 -8 3 0 -8 6 -8 14 -36 18 -64 4 -33 3 -45 -3 -35 -8 11 -12 9 -20 -13 -14 -37 -14 -42 2 -28 14 11 27 5 27 -11 0 -5 -5 -6 -12 -2 -8 5 -9 2 -5 -9 3 -9 -1 -23 -9 -32 -17 -17 -49 -21 -39 -5 3 6 13 10 21 10 8 0 14 7 14 15 0 19 -14 19 -31 -1 -21 -26 -62 -42 -119 -48 -59 -5 -130 -23 -130 -33 0 -5 12 -3 83 12 9 2 17 -1 17 -7 0 -17 115 -3 151 19 69 40 94 117 69 210 -14 51 -67 143 -83 143 -5 0 -4 -6 2 -14z m6 -326 c3 -5 -1 -11 -9 -11 -29 -3 -34 -4 -42 -11 -4 -5 -17 -8 -28 -7 -15 0 -10 6 19 20 47 22 52 22 60 9z"/>
<path d="M3420 1803 c-24 -13 -38 -23 -30 -23 8 0 30 9 48 20 29 18 36 18 33 -2 0 -4 6 -5 15 -1 8 3 14 6 12 7 -2 1 -10 6 -18 12 -11 7 -27 3 -60 -13z"/>
<path d="M3676 1785 c-9 -26 -7 -32 5 -12 6 10 9 21 6 23 -2 3 -7 -2 -11 -11z"/>
<path d="M2972 1754 c-1 -13 0 -24 2 -24 7 0 14 40 7 44 -4 3 -8 -6 -9 -20z"/>
<path d="M3195 1771 c11 -19 69 -41 105 -41 27 0 90 24 90 34 0 2 -7 7 -16 10 -8 3 -13 2 -9 -3 14 -24 -92 -21 -160 5 -13 5 -16 4 -10 -5z"/>
<path d="M3783 1743 c5 -12 13 -23 17 -23 4 0 5 11 3 23 -3 13 -11 24 -18 24 -10 0 -11 -6 -2 -24z"/>
<path d="M3002 1745 c4 -4 3 -16 -2 -26 -13 -23 5 -63 35 -79 13 -7 21 -18 18 -26 -3 -8 0 -14 6 -14 21 0 11 24 -26 58 -24 22 -33 37 -25 39 6 3 12 13 12 23 0 10 -6 22 -12 26 -7 4 -10 4 -6 -1z"/>
<path d="M3040 1722 c0 -17 5 -34 10 -37 7 -4 9 5 5 26 -8 44 -15 50 -15 11z"/>
<path d="M3757 1730 c3 -10 13 -25 22 -32 13 -10 14 -10 4 2 -7 8 -13 22 -13 32 0 10 -4 18 -9 18 -5 0 -7 -9 -4 -20z"/>
<path d="M3194 1722 c-45 -8 -134 -65 -121 -79 4 -3 22 8 41 25 36 31 63 40 146 45 l45 2 -46 5 c-25 3 -54 4 -65 2z"/>
<path d="M3340 1700 c8 -5 20 -10 25 -10 6 0 3 5 -5 10 -8 5 -19 10 -25 10 -5 0 -3 -5 5 -10z"/>
<path d="M3810 1675 c0 -8 5 -15 10 -15 6 0 10 7 10 15 0 8 -4 15 -10 15 -5 0 -10 -7 -10 -15z"/>
<path d="M3435 1620 c-3 -6 1 -7 9 -4 18 7 21 14 7 14 -6 0 -13 -4 -16 -10z"/>
<path d="M3695 1620 c-3 -5 -2 -10 4 -10 5 0 13 5 16 10 3 6 2 10 -4 10 -5 0 -13 -4 -16 -10z"/>
<path d="M3800 1619 c0 -5 5 -7 10 -4 6 3 10 8 10 11 0 2 -4 4 -10 4 -5 0 -10 -5 -10 -11z"/>
<path d="M3645 1613 c-48 -7 -48 -18 1 -18 25 0 41 1 35 3 -6 2 -9 8 -5 13 3 5 4 8 2 8 -2 -1 -16 -4 -33 -6z"/>
<path d="M3399 1593 c-13 -16 -12 -17 4 -4 9 7 17 15 17 17 0 8 -8 3 -21 -13z"/>
<path d="M3715 1590 c-3 -6 1 -7 9 -4 18 7 21 14 7 14 -6 0 -13 -4 -16 -10z"/>
<path d="M3765 1570 c-3 -5 -2 -10 4 -10 5 0 13 5 16 10 3 6 2 10 -4 10 -5 0 -13 -4 -16 -10z"/>
<path d="M3717 1553 c-4 -3 -7 -11 -7 -17 0 -6 5 -5 12 2 6 6 9 14 7 17 -3 3 -9 2 -12 -2z"/>
<path d="M3495 1450 c-3 -6 1 -7 9 -4 18 7 21 14 7 14 -6 0 -13 -4 -16 -10z"/>
<path d="M3866 2448 c-3 -13 -2 -26 3 -31 5 -5 11 3 13 18 6 32 -8 43 -16 13z"/>
<path d="M3809 2354 c-12 -15 -11 -16 10 -9 16 5 21 4 17 -4 -4 -6 -3 -11 2 -11 6 0 12 6 15 14 11 29 -22 36 -44 10z"/>
<path d="M2350 2080 c0 -5 5 -10 11 -10 5 0 7 5 4 10 -3 6 -8 10 -11 10 -2 0 -4 -4 -4 -10z"/>
<path d="M2630 2010 c-24 -8 -23 -8 8 -9 17 -1 32 4 32 9 0 11 -5 11 -40 0z"/>
<path d="M3584 1778 l-19 -23 23 19 c12 11 22 21 22 23 0 8 -8 2 -26 -19z"/>
<path d="M3539 1723 l-24 -28 28 24 c25 23 32 31 24 31 -2 0 -14 -12 -28 -27z"/>
<path d="M3838 1288 c-54 -55 -98 -105 -98 -111 0 -7 46 34 101 89 56 56 100 106 98 112 -2 5 -48 -35 -101 -90z"/>
<path d="M2098 1279 c-73 -48 -93 -69 -68 -69 6 0 21 10 33 23 12 13 43 38 70 56 40 27 55 41 45 41 -2 0 -38 -23 -80 -51z"/>
<path d="M2198 1173 c7 -3 16 -2 19 1 4 3 -2 6 -13 5 -11 0 -14 -3 -6 -6z"/>
<path d="M2378 1133 c7 -3 16 -2 19 1 4 3 -2 6 -13 5 -11 0 -14 -3 -6 -6z"/>
<path d="M2428 1123 c7 -3 16 -2 19 1 4 3 -2 6 -13 5 -11 0 -14 -3 -6 -6z"/>
<path d="M2478 1113 c7 -3 16 -2 19 1 4 3 -2 6 -13 5 -11 0 -14 -3 -6 -6z"/>
<path d="M3637 1085 c-19 -19 -37 -31 -41 -28 -3 3 -6 0 -6 -8 0 -18 -36 -50 -46 -41 -4 4 -3 1 1 -7 6 -11 4 -13 -8 -8 -9 3 -16 3 -16 -1 3 -21 -2 -32 -13 -26 -7 5 -8 3 -3 -6 6 -10 4 -12 -8 -7 -10 4 -16 2 -14 -6 2 -14 -97 -17 -173 -5 -40 6 -39 6 10 -7 95 -25 136 -28 167 -11 34 18 212 196 196 196 -6 0 -27 -16 -46 -35z"/>
<path d="M2518 1103 c6 -2 18 -2 25 0 6 3 1 5 -13 5 -14 0 -19 -2 -12 -5z"/>
<path d="M2568 1093 c6 -2 18 -2 25 0 6 3 1 5 -13 5 -14 0 -19 -2 -12 -5z"/>
<path d="M2630 1080 c14 -4 34 -8 45 -8 16 0 15 2 -5 8 -14 4 -34 8 -45 8 -16 0 -15 -2 5 -8z"/>
<path d="M2708 1063 c6 -2 18 -2 25 0 6 3 1 5 -13 5 -14 0 -19 -2 -12 -5z"/>
<path d="M2758 1053 c6 -2 18 -2 25 0 6 3 1 5 -13 5 -14 0 -19 -2 -12 -5z"/>
<path d="M2808 1043 c7 -3 16 -2 19 1 4 3 -2 6 -13 5 -11 0 -14 -3 -6 -6z"/>
<path d="M2848 1033 c6 -2 18 -2 25 0 6 3 1 5 -13 5 -14 0 -19 -2 -12 -5z"/>
<path d="M2898 1023 c6 -2 18 -2 25 0 6 3 1 5 -13 5 -14 0 -19 -2 -12 -5z"/>
<path d="M2948 1013 c7 -3 16 -2 19 1 4 3 -2 6 -13 5 -11 0 -14 -3 -6 -6z"/>
<path d="M3000 1000 c14 -4 36 -8 50 -8 22 0 22 1 -5 8 -16 4 -39 8 -50 8 -16 0 -15 -2 5 -8z"/>
<path d="M3088 983 c7 -3 16 -2 19 1 4 3 -2 6 -13 5 -11 0 -14 -3 -6 -6z"/>
<path d="M3145 970 c11 -5 27 -9 35 -9 13 -1 13 0 0 9 -8 5 -24 9 -35 9 l-20 0 20 -9z"/>
<path d="M3228 953 c7 -3 16 -2 19 1 4 3 -2 6 -13 5 -11 0 -14 -3 -6 -6z"/>
<path d="M2473 1469 c-36 -23 -43 -45 -15 -53 64 -18 83 -17 117 4 45 28 44 44 -4 58 -52 16 -61 15 -98 -9z m115 -8 c10 -6 7 -12 -12 -24 -26 -18 -64 -21 -105 -10 l-24 6 24 18 c25 19 94 25 117 10z"/>
<path d="M2942 1485 c3 -4 53 -15 110 -25 57 -10 121 -21 143 -25 22 -4 37 -5 34 -1 -7 7 -35 15 -89 23 -19 3 -55 9 -80 15 -67 15 -126 21 -118 13z"/>
<path d="M2690 1460 c-14 -11 -33 -20 -43 -20 -11 0 -21 -8 -24 -17 -2 -10 -28 -35 -58 -57 -33 -24 -51 -44 -48 -52 9 -23 28 -16 91 31 33 25 63 45 66 45 4 0 26 19 49 41 39 39 35 46 -6 11 -9 -8 -20 -12 -24 -8 -4 4 3 16 17 26 14 11 21 20 15 20 -5 0 -21 -9 -35 -20z m-5 -40 c8 -13 -20 -24 -41 -16 -20 8 -9 26 16 26 10 0 22 -5 25 -10z m-51 -29 c7 -10 -80 -74 -95 -69 -5 2 12 20 38 40 56 43 51 40 57 29z"/>
<path d="M2832 1468 c-7 -7 -12 -9 -12 -6 0 3 -13 -6 -30 -20 -41 -36 -30 -40 17 -6 54 39 59 44 47 44 -6 0 -15 -5 -22 -12z"/>
<path d="M2882 1459 c-23 -9 -172 -117 -172 -125 0 -2 9 -4 20 -4 11 0 20 6 20 13 0 15 79 74 124 94 34 16 39 16 31 3 -3 -5 -2 -10 4 -10 5 0 13 5 16 10 3 6 13 10 21 10 8 0 12 -4 9 -10 -7 -12 12 -12 40 0 18 8 16 9 -10 11 -16 1 -39 2 -50 2 -11 0 -22 3 -25 7 -3 4 -15 4 -28 -1z"/>
<path d="M3038 1433 c7 -3 16 -2 19 1 4 3 -2 6 -13 5 -11 0 -14 -3 -6 -6z"/>
<path d="M3070 1436 c0 -3 9 -10 20 -16 11 -6 20 -8 20 -6 0 3 -9 10 -20 16 -11 6 -20 8 -20 6z"/>
<path d="M2865 1420 c-3 -6 1 -7 9 -4 18 7 21 14 7 14 -6 0 -13 -4 -16 -10z"/>
<path d="M2948 1411 c-37 -5 -57 -16 -88 -46 -28 -27 -37 -42 -30 -50 6 -7 47 -20 93 -29 45 -10 90 -20 99 -22 19 -6 108 70 108 92 0 7 -10 16 -22 20 -13 4 -27 13 -33 19 -13 17 -69 24 -127 16z m120 -28 c4 -7 18 -16 30 -20 22 -8 21 -10 -17 -47 l-39 -38 -64 11 c-34 6 -80 16 -102 22 l-38 11 28 30 c16 16 37 33 46 37 31 11 148 7 156 -6z"/>
<path d="M2929 1359 l-22 -22 24 -19 c39 -32 113 -7 107 36 -5 32 -79 35 -109 5z m91 1 c13 -9 12 -12 -4 -25 -23 -18 -72 -20 -82 -3 -16 26 54 49 86 28z"/>
<path d="M3070 1350 c0 -5 5 -10 10 -10 6 0 10 5 10 10 0 6 -4 10 -10 10 -5 0 -10 -4 -10 -10z"/>
<path d="M3125 1410 c-4 -7 3 -8 21 -4 16 4 25 3 21 -2 -3 -6 3 -10 13 -11 11 -1 23 3 26 9 4 7 2 8 -4 4 -7 -4 -12 -2 -12 3 0 14 -57 14 -65 1z"/>
<path d="M2363 1389 c-54 -35 -45 -50 40 -65 31 -5 43 -2 72 20 19 15 35 31 35 36 0 10 -64 30 -95 30 -11 0 -35 -10 -52 -21z m120 -9 c5 -4 -2 -15 -14 -24 -24 -16 -65 -19 -108 -7 -25 7 -25 7 10 29 25 16 43 20 69 16 19 -4 39 -10 43 -14z"/>
<path d="M2740 1401 c0 -11 -47 -36 -63 -32 -5 1 -6 -3 -3 -7 7 -12 -30 -46 -42 -38 -16 10 -7 -23 11 -44 9 -11 25 -20 34 -19 15 0 14 2 -3 9 -46 18 -39 33 56 108 14 11 22 24 18 28 -5 4 -8 2 -8 -5z"/>
<path d="M3278 1318 c-129 -123 -145 -132 -226 -125 -40 3 -59 2 -47 -3 11 -5 46 -9 79 -9 64 -1 65 0 179 105 32 30 63 54 70 55 7 1 23 1 37 1 20 -1 21 0 5 5 -35 9 -40 22 -12 32 30 12 34 18 13 18 -8 0 -52 -36 -98 -79z"/>
<path d="M3404 1369 c-3 -6 -4 -13 -1 -15 7 -7 109 -35 127 -36 8 0 51 -6 94 -14 69 -12 82 -12 94 0 12 12 12 15 -4 24 -11 5 -49 15 -86 22 -38 7 -68 16 -68 20 0 12 -148 11 -156 -1z m70 -5 c9 -3 16 -9 16 -13 0 -10 -59 -1 -66 10 -6 10 26 12 50 3z m74 -17 c2 -11 -3 -17 -16 -17 -26 0 -34 11 -20 27 14 17 32 12 36 -10z m161 -32 c8 -8 -33 -5 -92 6 -31 7 -54 15 -52 19 5 7 134 -16 144 -25z"/>
<path d="M3280 1360 c-8 -5 -12 -11 -10 -14 3 -2 14 2 24 10 22 15 10 19 -14 4z"/>
<path d="M2680 1315 c-7 -8 -10 -19 -6 -23 4 -4 101 -26 214 -48 237 -48 226 -49 318 34 43 39 53 52 38 52 -11 0 -38 -19 -61 -42 -48 -49 -70 -68 -78 -68 -3 0 -3 6 1 13 6 9 4 9 -7 1 -16 -12 -29 -12 -46 -1 -7 5 -17 6 -22 2 -5 -3 -29 1 -53 9 -24 9 -52 15 -63 14 -25 -1 -85 11 -99 19 -12 8 -37 12 -77 15 -16 1 -26 7 -25 16 1 21 -19 25 -34 7z"/>
<path d="M2227 1293 c-42 -30 -48 -60 -14 -68 118 -28 255 -55 279 -55 18 0 41 12 66 34 33 31 35 37 22 49 -14 13 -252 67 -296 67 -10 0 -36 -12 -57 -27z m196 -12 c76 -16 141 -32 144 -35 8 -8 -35 -54 -57 -61 -10 -3 -81 8 -159 25 -78 16 -144 30 -146 30 -3 0 -5 4 -5 10 0 9 68 60 80 60 3 0 67 -13 143 -29z"/>
<path d="M2277 1283 c-4 -3 -7 -11 -7 -17 0 -6 5 -5 12 2 6 6 9 14 7 17 -3 3 -9 2 -12 -2z"/>
<path d="M2330 1281 c0 -5 -10 -12 -22 -16 -16 -4 -19 -8 -9 -12 7 -3 23 4 34 16 12 12 16 21 9 21 -6 0 -12 -4 -12 -9z"/>
<path d="M2370 1269 c0 -5 -5 -7 -10 -4 -6 4 -10 3 -9 -2 1 -4 1 -15 0 -23 -1 -13 -2 -13 -11 0 -8 13 -10 12 -10 -2 0 -28 24 -21 43 12 10 17 13 30 8 30 -6 0 -11 -5 -11 -11z"/>
<path d="M2405 1262 c3 -3 -2 -10 -10 -16 -10 -8 -12 -16 -5 -26 8 -12 10 -13 10 -1 0 8 7 22 15 31 13 15 13 17 0 17 -8 0 -13 -3 -10 -5z"/>
<path d="M2435 1244 c-19 -19 -12 -32 8 -16 8 7 17 9 21 5 4 -4 4 0 0 10 -8 21 -9 21 -29 1z"/>
<path d="M2278 1238 c5 -5 16 -8 23 -6 8 3 3 7 -10 11 -17 4 -21 3 -13 -5z"/>
<path d="M2480 1225 c-7 -8 -8 -15 -2 -15 5 0 15 7 22 15 7 8 8 15 2 15 -5 0 -15 -7 -22 -15z"/>
<path d="M3333 1303 c-23 -8 -14 -32 15 -39 15 -3 52 -12 82 -21 30 -8 69 -16 85 -17 17 -2 48 -6 71 -10 30 -5 44 -3 52 7 17 20 -1 33 -55 42 -24 4 -43 11 -43 17 0 6 -14 8 -32 6 -17 -3 -48 -2 -67 2 -68 14 -96 18 -108 13z m124 -30 c7 -3 13 -10 13 -15 0 -6 -7 -7 -16 -4 -9 3 -34 9 -57 12 -69 11 -79 26 -13 19 33 -4 65 -9 73 -12z m77 -8 c8 -9 18 -15 21 -14 16 4 75 -13 70 -20 -3 -5 -22 -5 -42 1 -21 5 -53 9 -70 8 -35 -1 -41 8 -21 28 16 16 23 15 42 -3z"/>
<path d="M2600 1205 c-30 -31 -32 -37 -20 -49 12 -11 194 -54 312 -74 31 -5 98 43 98 71 0 23 -22 31 -168 62 -164 34 -180 33 -222 -10z m221 -6 c79 -16 148 -34 153 -39 9 -9 -34 -51 -62 -61 -9 -3 -75 7 -147 22 -180 39 -175 38 -175 52 0 13 58 57 76 57 6 0 76 -14 155 -31z"/>
<path d="M2675 1190 c-22 -24 -13 -39 10 -16 23 22 34 20 27 -6 -4 -18 -2 -20 16 -16 12 3 23 1 26 -6 3 -6 4 0 1 14 -5 25 -5 25 6 3 14 -26 34 -32 25 -7 -3 9 -6 19 -6 24 0 12 -25 6 -46 -10 -16 -14 -16 -13 -5 8 6 12 7 22 2 22 -5 0 -16 2 -23 5 -8 3 -23 -3 -33 -15z"/>
<path d="M2794 1164 c3 -9 6 -18 6 -20 0 -3 5 -2 10 1 6 3 10 1 10 -6 0 -7 8 -5 21 7 22 19 22 19 14 -5 l-7 -24 26 19 c34 25 33 31 -9 29 -19 0 -35 3 -35 8 0 5 -8 3 -17 -4 -11 -10 -14 -10 -9 -1 4 7 2 12 -4 12 -7 0 -9 -7 -6 -16z"/>
<path d="M2868 1223 c7 -3 16 -2 19 1 4 3 -2 6 -13 5 -11 0 -14 -3 -6 -6z"/>
<path d="M3242 1218 c-20 -20 -14 -27 31 -38 23 -6 58 -14 77 -20 19 -5 70 -14 113 -21 61 -9 81 -9 90 0 17 18 -13 37 -71 46 -26 4 -53 12 -61 18 -8 7 -35 12 -60 13 -25 0 -60 3 -76 7 -20 5 -35 3 -43 -5z m71 -14 c20 -4 37 -11 37 -16 0 -12 -80 0 -94 13 -12 11 4 11 57 3z m97 -19 c0 -9 -7 -18 -16 -22 -18 -7 -39 11 -30 26 11 17 46 13 46 -4z m93 -20 c20 -4 37 -12 37 -17 0 -6 -10 -8 -22 -4 -13 3 -40 9 -60 12 -21 4 -38 11 -38 16 0 6 10 8 23 5 12 -3 39 -9 60 -12z"/>
<path d="M2908 1213 c7 -3 16 -2 19 1 4 3 -2 6 -13 5 -11 0 -14 -3 -6 -6z"/>
<path d="M2948 1203 c7 -3 16 -2 19 1 4 3 -2 6 -13 5 -11 0 -14 -3 -6 -6z"/>
<path d="M3021 1134 c-37 -30 -40 -61 -8 -74 42 -18 357 -79 374 -73 25 8 73 54 73 69 0 6 -6 17 -13 23 -14 11 -338 81 -376 81 -10 0 -33 -12 -50 -26z m243 -25 c104 -21 170 -39 173 -47 8 -19 -36 -62 -63 -62 -36 0 -358 70 -368 80 -18 18 51 74 79 66 6 -2 86 -18 179 -37z"/>
<path d="M3041 1107 c-13 -21 -12 -21 5 -5 10 10 16 20 13 22 -3 3 -11 -5 -18 -17z"/>
<path d="M3105 1120 c-3 -5 -13 -7 -23 -4 -14 5 -15 4 -2 -5 13 -9 13 -11 -2 -11 -18 0 -23 -11 -12 -23 4 -3 13 1 21 9 8 8 18 12 22 10 4 -3 8 4 8 15 2 21 -3 24 -12 9z"/>
<path d="M3129 1094 c-5 -15 -7 -29 -4 -32 3 -3 5 1 5 9 1 10 3 9 11 -3 13 -24 31 -23 47 2 7 11 8 20 3 20 -6 0 -15 -8 -20 -17 -9 -15 -12 -15 -20 -4 -5 7 -6 22 -4 32 8 29 -6 23 -18 -7z"/>
<path d="M3216 1085 c-24 -25 -19 -39 6 -15 12 11 19 22 16 25 -3 3 -13 -1 -22 -10z"/>
<path d="M3254 1066 c-4 -17 -11 -23 -22 -19 -15 4 -15 3 -2 -6 21 -15 40 -14 34 2 -3 8 3 13 16 13 15 0 18 -5 14 -18 -3 -11 0 -18 7 -18 7 0 9 3 6 6 -3 4 -2 16 4 26 8 15 8 23 -2 32 -9 8 -10 8 -6 0 4 -7 -2 -14 -14 -17 -15 -4 -19 -2 -15 9 3 8 1 14 -4 14 -5 0 -12 -11 -16 -24z"/>
<path d="M3331 1051 c-8 -5 -9 -11 -3 -15 5 -3 15 1 22 9 14 16 3 20 -19 6z"/>
<path d="M3370 1053 c0 -15 18 -35 23 -27 3 5 -1 15 -9 22 -8 7 -14 9 -14 5z"/>
<path d="M3336 1484 c-5 -14 -4 -15 9 -4 17 14 19 20 6 20 -5 0 -12 -7 -15 -16z"/>
<path d="M3760 1125 c-13 -14 -21 -27 -18 -30 2 -3 15 6 28 20 13 14 21 27 18 30 -2 3 -15 -6 -28 -20z"/>
<path d="M3201 2774 c-1 -38 -3 -41 -38 -51 l-38 -11 45 5 c25 3 46 6 46 7 1 1 -2 21 -6 46 l-7 45 -2 -41z"/>
<path d="M4055 2760 l-60 -17 -1 -58 c-1 -50 -4 -60 -23 -66 -28 -11 -28 -54 0 -69 16 -9 26 -8 45 5 23 15 25 22 23 72 -3 59 6 70 54 72 26 1 21 -34 -8 -53 -32 -21 -32 -53 -1 -67 17 -8 29 -8 45 0 18 10 21 20 20 79 -1 74 -9 114 -24 118 -6 1 -37 -6 -70 -16z m76 -47 c1 -27 3 -60 4 -75 4 -30 -17 -53 -40 -44 -22 8 -18 37 5 43 16 4 20 14 20 44 0 22 -3 39 -6 39 -3 0 -25 -5 -49 -11 l-44 -11 -3 -66 c-3 -56 -6 -67 -22 -70 -10 -2 -22 2 -27 9 -9 15 7 39 27 39 10 0 14 16 14 60 l0 59 48 15 c71 22 72 22 73 -31z"/>
<path d="M3912 2755 c4 -4 1 -14 -7 -22 -8 -8 -15 -20 -15 -26 0 -7 7 -4 15 7 16 21 45 15 45 -9 0 -10 -9 -15 -27 -15 -25 0 -26 -1 -8 -14 17 -12 21 -12 32 3 20 26 15 47 -14 66 -16 10 -25 14 -21 10z"/>
<path d="M3646 2731 c18 -11 34 -25 37 -33 4 -9 6 -9 6 -1 1 17 -39 53 -58 53 -9 0 -2 -9 15 -19z"/>
<path d="M3083 2690 c-30 -18 -33 -18 -42 -2 -5 9 -13 14 -16 10 -4 -4 0 -14 9 -23 9 -9 16 -32 16 -52 0 -38 33 -93 56 -93 8 0 14 4 14 10 0 5 -7 6 -17 3 -11 -4 -14 -3 -9 6 5 8 19 10 37 6 18 -4 29 -3 29 4 0 6 -16 11 -35 11 -21 0 -35 -5 -35 -12 0 -7 -7 0 -15 16 -23 43 -18 70 17 105 36 36 35 37 -9 11z"/>
<path d="M2616 2664 c-22 -22 -20 -29 16 -58 18 -14 29 -28 25 -32 -3 -4 -13 -1 -22 6 -12 10 -15 10 -15 -3 0 -21 16 -30 40 -22 30 10 27 53 -5 65 -30 11 -34 34 -5 25 22 -7 26 5 8 23 -16 16 -23 15 -42 -4z"/>
<path d="M3690 2670 c0 -8 5 -22 10 -30 9 -13 10 -13 10 0 0 8 -5 22 -10 30 -9 13 -10 13 -10 0z"/>
<path d="M2463 2646 c-41 -9 -59 -26 -29 -26 9 0 16 -18 20 -50 6 -46 14 -59 28 -45 3 4 2 24 -3 46 -7 31 -6 43 6 55 13 14 15 13 15 -5 0 -12 5 -21 10 -21 12 0 14 47 3 52 -5 2 -27 -1 -50 -6z"/>
<path d="M2540 2596 c0 -65 12 -87 24 -43 6 21 7 22 21 3 25 -32 29 -10 9 46 -12 32 -26 54 -37 56 -15 3 -17 -5 -17 -62z m33 14 c3 -11 1 -23 -4 -26 -5 -3 -9 6 -9 20 0 31 6 34 13 6z"/>
<path d="M3803 2628 c-4 -7 -9 -22 -10 -33 -1 -11 -5 -33 -8 -49 -8 -46 5 -24 18 30 15 60 39 68 87 27 29 -24 32 -25 21 -5 -21 39 -90 58 -108 30z"/>
<path d="M2337 2622 c-16 -3 -17 -11 -11 -60 3 -32 8 -59 10 -61 2 -2 14 -1 27 3 30 7 39 28 31 73 -7 36 -27 52 -57 45z m31 -60 c2 -18 -1 -32 -7 -32 -6 0 -11 9 -11 19 0 11 -3 27 -7 37 -4 12 -2 15 8 12 8 -2 15 -19 17 -36z"/>
<path d="M3742 2607 c14 -13 28 -33 31 -43 4 -16 5 -16 6 3 1 14 -10 29 -31 43 l-33 22 27 -25z"/>
<path d="M2285 2588 c6 -31 5 -32 -10 -14 -8 11 -15 23 -15 28 0 4 -7 8 -16 8 -12 0 -15 -6 -11 -22 3 -13 9 -40 12 -61 10 -50 30 -63 22 -14 -7 45 -2 47 18 7 22 -43 39 -39 31 8 -14 78 -18 92 -28 92 -5 0 -7 -13 -3 -32z"/>
<path d="M2170 2536 c0 -65 12 -87 24 -44 5 22 6 22 20 3 25 -34 29 -9 8 47 -11 29 -27 54 -36 56 -13 3 -16 -7 -16 -62z m27 -8 c-3 -7 -5 -2 -5 12 0 14 2 19 5 13 2 -7 2 -19 0 -25z"/>
<path d="M2126 2534 c8 -69 -11 -68 -22 1 -4 29 -11 45 -20 45 -8 0 -14 -1 -14 -2 1 -2 7 -28 14 -58 11 -48 16 -55 37 -55 21 0 24 5 27 39 4 47 -5 86 -19 86 -7 0 -8 -19 -3 -56z"/>
<path d="M2007 2563 c-12 -11 -8 -78 6 -95 6 -9 24 -18 38 -22 26 -6 26 -5 21 42 -2 26 -9 55 -14 65 -9 17 -39 23 -51 10z m37 -29 c9 -23 7 -64 -3 -64 -9 0 -21 34 -21 63 0 21 16 22 24 1z"/>
<path d="M4182 2548 c-7 -7 -12 -17 -12 -24 0 -19 32 -26 48 -10 13 12 13 18 2 30 -15 19 -22 20 -38 4z m36 -20 c-6 -18 -28 -21 -28 -4 0 9 7 16 16 16 9 0 14 -5 12 -12z"/>
<path d="M2634 2506 c-15 -16 -6 -36 16 -36 13 0 18 7 17 20 -2 24 -18 32 -33 16z"/>
<path d="M3947 2478 c8 -57 13 -61 13 -10 0 22 -4 43 -9 46 -5 4 -7 -12 -4 -36z"/>
<path d="M2578 2498 c-8 -21 2 -38 23 -38 15 0 17 4 10 22 -9 26 -27 34 -33 16z"/>
<path d="M2510 2485 c-20 -25 -1 -99 27 -103 22 -3 49 29 36 42 -12 11 -23 6 -23 -11 0 -24 -16 -4 -24 29 -3 15 -2 30 4 33 5 3 10 1 10 -4 0 -6 7 -11 15 -11 13 0 14 4 5 20 -13 24 -33 26 -50 5z"/>
<path d="M4063 2480 c-32 -13 -55 -54 -55 -97 0 -29 7 -43 31 -65 17 -15 42 -28 56 -28 58 0 105 47 105 104 0 57 -83 109 -137 86z m91 -31 c57 -45 21 -139 -55 -139 -71 0 -105 85 -54 135 30 31 73 32 109 4z"/>
<path d="M4056 2432 c-3 -6 3 -12 15 -15 12 -3 19 -1 16 6 -5 15 -24 20 -31 9z"/>
<path d="M4127 2414 c-12 -13 -7 -20 13 -20 11 0 19 5 17 10 -4 13 -21 18 -30 10z"/>
<path d="M4040 2388 c0 -27 31 -58 59 -58 57 0 69 45 14 53 -21 3 -46 8 -55 12 -12 5 -18 3 -18 -7z m80 -38 c0 -5 -9 -10 -19 -10 -11 0 -23 5 -26 10 -4 6 5 10 19 10 14 0 26 -4 26 -10z"/>
<path d="M2407 2474 c-15 -15 -6 -43 20 -62 16 -11 24 -24 20 -28 -4 -5 -12 -2 -16 5 -7 10 -10 10 -16 1 -10 -16 9 -33 31 -28 12 2 20 13 22 31 3 21 -2 29 -22 37 -31 12 -36 34 -5 25 15 -5 20 -3 17 6 -5 15 -40 24 -51 13z"/>
<path d="M2337 2463 c-4 -3 -7 -25 -7 -48 0 -53 26 -82 55 -61 14 10 17 21 12 50 -9 54 -38 82 -60 59z m39 -62 c6 -26 4 -33 -7 -29 -8 3 -15 21 -17 44 -4 47 14 36 24 -15z"/>
<path d="M2254 2413 c3 -21 6 -48 6 -60 0 -14 6 -23 15 -23 12 0 14 7 9 26 -5 19 -4 25 5 20 6 -4 11 -14 11 -22 0 -8 7 -14 16 -14 12 0 14 5 9 18 -7 15 -12 41 -14 80 -1 7 -14 12 -32 12 -31 0 -31 -1 -25 -37z m38 2 c0 -5 -5 -11 -11 -13 -6 -2 -11 4 -11 13 0 9 5 15 11 13 6 -2 11 -8 11 -13z"/>
<path d="M2181 2422 c-13 -24 0 -82 21 -95 20 -13 48 7 48 35 0 20 -26 36 -38 23 -4 -4 -1 -10 6 -12 6 -3 12 -11 12 -20 0 -8 -6 -13 -12 -11 -16 6 -24 78 -9 78 6 0 11 -5 11 -12 0 -9 3 -9 11 -1 6 6 8 16 5 22 -11 17 -44 13 -55 -7z"/>
<path d="M2714 2428 c-3 -4 -11 -5 -19 -1 -10 3 -15 -1 -15 -11 0 -12 6 -15 23 -11 13 4 32 7 42 9 30 4 30 26 0 24 -15 -2 -29 -6 -31 -10z"/>
<path d="M2114 2393 l7 -38 -22 33 c-26 40 -42 41 -35 2 3 -16 9 -43 12 -60 3 -16 10 -30 16 -30 5 0 7 13 3 33 -6 30 -5 31 10 13 8 -11 15 -23 15 -28 0 -4 7 -8 16 -8 10 0 14 6 11 14 -3 7 -9 34 -12 60 -4 25 -12 46 -17 46 -6 0 -8 -15 -4 -37z"/>
<path d="M1724 2384 c-4 -14 -2 -30 4 -36 12 -12 62 -2 62 12 0 6 -4 10 -10 10 -5 0 -10 -4 -10 -10 0 -16 -30 -11 -37 6 -8 22 13 42 29 26 17 -17 33 -15 18 3 -20 24 -49 18 -56 -11z"/>
<path d="M1986 2368 c4 -23 11 -51 16 -60 9 -19 43 -24 53 -8 10 16 -7 110 -20 110 -10 0 -10 -11 -3 -46 6 -25 7 -48 4 -51 -10 -10 -16 2 -24 47 -4 24 -13 45 -20 48 -9 3 -11 -7 -6 -40z"/>
<path d="M3942 2380 c0 -14 2 -19 5 -12 2 6 2 18 0 25 -3 6 -5 1 -5 -13z"/>
<path d="M2710 2371 c-41 -8 -67 -17 -57 -19 10 -2 14 -8 10 -15 -4 -7 0 -6 10 2 9 7 23 11 32 8 8 -4 17 -2 20 3 4 6 17 10 30 10 20 0 44 17 34 23 -2 2 -38 -4 -79 -12z"/>
<path d="M3926 2333 c-6 -14 -5 -15 5 -6 7 7 10 15 7 18 -3 3 -9 -2 -12 -12z"/>
<path d="M2475 2330 c-22 -5 -94 -18 -160 -30 -66 -12 -122 -24 -125 -27 -2 -2 27 -1 65 2 39 3 78 6 88 6 9 0 15 5 11 10 -4 7 14 9 50 6 39 -3 59 0 67 9 6 8 14 12 18 10 3 -2 17 2 31 10 28 15 15 16 -45 4z"/>
<path d="M1751 2296 c-16 -30 -7 -46 25 -46 17 0 24 5 24 20 0 11 -7 23 -15 26 -8 4 -12 10 -9 15 3 5 1 9 -4 9 -5 0 -14 -11 -21 -24z m34 -15 c7 -12 -12 -24 -25 -16 -11 7 -4 25 10 25 5 0 11 -4 15 -9z"/>
<path d="M2737 2309 c-20 -12 -62 -89 -48 -89 6 0 22 21 37 46 16 28 30 42 36 36 10 -10 -47 -102 -63 -102 -6 0 -3 -8 6 -17 16 -16 18 -15 29 3 6 10 11 24 11 29 1 6 9 22 19 37 11 16 15 35 11 48 -7 23 -12 24 -38 9z"/>
<path d="M3974 2310 c-22 -9 -84 -75 -84 -90 0 -6 19 10 42 35 43 46 68 57 68 30 0 -8 -3 -15 -7 -15 -5 -1 -26 -17 -48 -36 -36 -32 -37 -34 -10 -20 17 8 43 26 59 39 27 22 28 26 15 44 -10 15 -20 18 -35 13z"/>
<path d="M3880 2273 c-19 -18 -31 -33 -27 -33 11 0 72 58 67 63 -3 2 -21 -11 -40 -30z"/>
<path d="M4194 2299 c-3 -6 -2 -15 4 -21 6 -6 12 -6 17 3 6 8 4 10 -5 4 -10 -6 -12 -4 -7 8 7 19 2 23 -9 6z"/>
<path d="M2053 2256 c-75 -14 -96 -29 -31 -24 26 2 51 7 54 11 4 4 15 7 25 7 10 0 21 5 24 10 3 6 3 9 -2 9 -4 -1 -36 -7 -70 -13z"/>
<path d="M4180 2251 c0 -12 -6 -21 -14 -21 -27 0 -28 -34 -2 -53 15 -10 26 -25 26 -33 0 -8 5 -14 11 -14 11 0 38 24 42 37 1 4 4 7 8 6 3 -1 10 7 17 17 10 17 8 22 -12 36 -14 8 -27 23 -29 32 -3 10 -5 6 -6 -9 -1 -20 5 -28 22 -33 l22 -7 -22 -11 c-13 -6 -23 -19 -23 -29 0 -10 -4 -21 -10 -24 -5 -3 -10 3 -10 14 0 12 -11 26 -26 34 l-25 13 25 12 c26 12 34 36 16 47 -5 3 -10 -3 -10 -14z"/>
<path d="M1833 2178 c6 -35 10 -84 11 -110 0 -25 4 -44 7 -42 4 2 9 -7 11 -21 4 -20 0 -25 -21 -28 l-26 -4 26 -2 c20 -1 29 -8 33 -27 4 -15 9 -25 10 -23 4 4 -4 51 -17 119 -3 14 -11 64 -18 113 -7 48 -15 87 -19 87 -3 0 -2 -28 3 -62z"/>
<path d="M1764 2215 c-9 -23 15 -48 32 -34 19 16 17 26 -6 39 -16 9 -22 8 -26 -5z m36 -15 c0 -5 -7 -10 -15 -10 -8 0 -15 5 -15 10 0 6 7 10 15 10 8 0 15 -4 15 -10z"/>
<path d="M4070 2200 c0 -21 15 -27 25 -10 3 6 0 10 -7 10 -9 0 -9 3 2 10 13 8 12 10 -2 10 -11 0 -18 -8 -18 -20z"/>
<path d="M2753 2185 c-6 -14 -7 -25 -2 -25 4 0 6 -8 2 -17 -5 -15 -4 -15 9 1 10 13 22 17 36 14 19 -5 20 -3 11 13 -5 10 -12 19 -15 19 -3 0 -2 -4 1 -10 3 -5 2 -10 -3 -10 -5 0 -13 9 -18 20 -9 19 -9 19 -21 -5z"/>
<path d="M3942 2196 c-20 -11 -21 -14 -8 -25 8 -7 32 -11 53 -10 59 4 50 -15 -12 -25 -69 -10 -72 -22 -4 -20 61 2 90 23 69 49 -11 13 -24 15 -59 11 -46 -6 -46 -6 -18 9 15 9 27 18 27 20 0 9 -25 4 -48 -9z"/>
<path d="M2031 2172 c-8 -14 -3 -22 25 -41 34 -24 45 -43 22 -38 -7 1 -13 -7 -13 -18 0 -21 25 -31 52 -21 13 5 14 9 5 18 -14 14 -16 32 -3 24 5 -3 14 1 21 9 10 13 9 19 -6 36 -20 22 -66 49 -83 49 -6 0 -15 -8 -20 -18z m65 -23 c24 -16 42 -34 39 -39 -7 -12 -94 41 -95 58 0 18 6 15 56 -19z m14 -79 c0 -5 -9 -10 -20 -10 -11 0 -20 5 -20 10 0 6 9 10 20 10 11 0 20 -4 20 -10z"/>
<path d="M1704 2165 c-9 -23 3 -45 25 -45 22 0 36 29 21 44 -7 7 -10 3 -10 -12 0 -13 -6 -22 -15 -22 -18 0 -20 21 -3 38 9 9 9 12 0 12 -7 0 -15 -7 -18 -15z"/>
<path d="M3871 2154 c0 -11 3 -14 6 -6 3 7 2 16 -1 19 -3 4 -6 -2 -5 -13z"/>
<path d="M3900 2146 c7 -7 14 -6 21 1 9 9 7 12 -9 10 -14 -1 -18 -5 -12 -11z"/>
<path d="M1778 2138 c5 -5 16 -8 23 -6 8 3 3 7 -10 11 -17 4 -21 3 -13 -5z"/>
<path d="M4060 2135 c-17 -21 -5 -45 22 -44 l23 2 -22 4 c-29 6 -29 21 -1 32 17 6 18 9 5 14 -8 3 -21 -1 -27 -8z"/>
<path d="M2783 2133 c-19 -7 -16 -19 5 -19 10 0 19 6 19 13 0 14 -4 15 -24 6z"/>
<path d="M1762 2100 c0 -19 2 -27 5 -17 2 9 2 25 0 35 -3 9 -5 1 -5 -18z"/>
<path d="M1814 2119 c-3 -6 -1 -16 5 -22 8 -8 11 -5 11 11 0 24 -5 28 -16 11z"/>
<path d="M1788 2083 c7 -3 16 -2 19 1 4 3 -2 6 -13 5 -11 0 -14 -3 -6 -6z"/>
<path d="M3881 2073 c-1 -27 15 -39 23 -17 3 8 2 12 -3 9 -5 -3 -12 3 -14 12 -4 14 -5 13 -6 -4z"/>
<path d="M3930 2083 c1 -20 38 -55 56 -51 29 5 30 44 2 52 -32 8 -58 8 -58 -1z m51 -14 c22 -11 17 -31 -6 -23 -13 5 -30 34 -19 34 3 0 14 -5 25 -11z"/>
<path d="M4167 2053 c-9 -9 -29 -17 -44 -18 -20 0 -27 -5 -24 -15 5 -24 4 -53 -4 -79 -8 -22 -6 -24 21 -18 21 4 35 0 52 -16 20 -18 24 -19 32 -7 5 8 10 22 10 31 0 9 11 21 25 27 32 15 32 30 1 42 -16 6 -26 18 -28 36 -4 34 -18 40 -41 17z m33 -28 c0 -15 8 -29 21 -36 l21 -11 -23 -12 c-13 -6 -26 -22 -29 -35 -5 -21 -7 -22 -19 -7 -7 9 -24 16 -37 16 -26 0 -30 10 -13 27 8 8 8 17 0 31 -16 30 -14 33 14 22 20 -8 27 -6 35 10 15 28 30 25 30 -5z"/>
<path d="M1732 2048 c-13 -17 3 -58 22 -58 8 0 18 5 21 10 3 6 -3 10 -14 10 -26 0 -29 36 -3 43 14 4 14 5 1 6 -9 0 -21 -5 -27 -11z"/>
<path d="M1781 2034 c0 -11 3 -14 6 -6 3 7 2 16 -1 19 -3 4 -6 -2 -5 -13z"/>
<path d="M1803 2015 c-3 -9 -3 -18 -1 -21 3 -3 8 4 11 16 6 23 -1 27 -10 5z"/>
<path d="M3880 2021 c0 -6 4 -13 10 -16 6 -3 7 1 4 9 -7 18 -14 21 -14 7z"/>
<path d="M2066 2004 c-8 -21 11 -45 30 -37 20 7 14 47 -7 51 -9 2 -19 -5 -23 -14z m34 -15 c0 -5 -7 -9 -15 -9 -15 0 -20 12 -9 23 8 8 24 -1 24 -14z"/>
<path d="M2456 2009 c4 -8 -1 -9 -17 -5 -23 7 -23 6 -6 -8 18 -14 18 -15 -2 -35 -12 -12 -21 -29 -21 -38 0 -12 7 -7 20 15 22 35 36 39 66 17 29 -22 43 -17 15 5 -13 11 -29 20 -37 20 -8 0 -14 5 -14 10 0 6 5 10 10 10 6 0 10 5 10 10 0 6 -7 10 -16 10 -8 0 -12 -5 -8 -11z"/>
<path d="M3940 2004 c0 -8 29 -23 111 -62 4 -2 9 5 13 14 5 13 4 15 -7 5 -11 -9 -17 -8 -26 2 -6 8 -9 16 -6 18 2 3 -10 6 -27 7 -18 2 -38 8 -45 14 -7 6 -13 6 -13 2z"/>
<path d="M3911 1920 c-1 -9 12 -21 28 -27 61 -23 71 -62 59 -238 -5 -64 -4 -88 2 -65 16 62 23 204 12 243 -9 33 -1 52 11 27 3 -6 4 -5 3 2 -2 7 -9 13 -17 13 -8 0 -25 8 -39 18 -13 9 -30 17 -36 17 -7 0 -15 6 -17 13 -4 8 -6 7 -6 -3z"/>
<path d="M1771 1911 c-1 -7 -12 -22 -25 -32 -29 -22 -38 -63 -23 -98 15 -32 33 -52 41 -44 3 4 6 1 6 -6 0 -7 13 -10 38 -8 20 3 46 0 57 -6 20 -10 20 -9 2 11 -14 15 -27 19 -50 16 -45 -6 -81 26 -81 73 0 44 32 73 79 73 49 0 69 -29 62 -88 -3 -26 -1 -55 4 -63 6 -10 9 -6 9 16 0 37 21 20 23 -19 1 -14 6 -26 11 -26 5 0 5 15 2 33 -4 17 -12 59 -17 92 -6 33 -14 64 -19 69 -5 5 -7 -1 -4 -15 3 -14 2 -20 -3 -14 -16 19 -62 38 -82 32 -11 -3 -22 0 -25 7 -3 7 -5 6 -5 -3z"/>
<path d="M3877 1900 c8 -30 21 -34 15 -5 -2 14 -8 25 -12 25 -5 0 -6 -9 -3 -20z"/>
<path d="M2660 1864 c0 -9 10 -25 23 -36 15 -14 17 -18 5 -14 -9 3 -19 0 -21 -7 -2 -7 -9 5 -16 26 -16 48 -28 47 -36 -4 -7 -40 0 -63 13 -43 4 6 18 10 32 9 50 -4 68 24 33 51 -11 8 -13 13 -5 14 21 0 13 20 -8 20 -12 0 -20 -7 -20 -16z"/>
<path d="M2570 1863 c-26 -5 -53 -23 -33 -23 6 0 14 -16 17 -35 4 -19 11 -35 17 -35 5 0 7 11 3 25 -3 14 -3 33 0 42 6 15 8 15 16 3 8 -12 10 -10 10 8 0 12 -1 21 -2 21 -2 -1 -14 -4 -28 -6z"/>
<path d="M1815 1851 c-3 -6 -3 -16 1 -22 4 -8 9 -7 15 2 5 8 9 9 9 3 0 -5 -6 -19 -14 -30 -12 -15 -17 -17 -28 -6 -10 10 -10 14 0 21 10 6 10 10 -2 20 -17 14 -36 7 -36 -13 0 -15 42 -56 56 -56 15 0 37 44 32 65 -4 22 -23 31 -33 16z"/>
<path d="M3885 1851 c-3 -5 -2 -12 3 -15 5 -3 9 1 9 9 0 17 -3 19 -12 6z"/>
<path d="M4174 1828 c-18 -19 -18 -20 6 -40 14 -11 24 -25 23 -29 -2 -5 6 -9 17 -9 16 0 20 -7 21 -37 1 -37 1 -37 8 -8 9 38 4 52 -20 58 -17 5 -19 9 -10 26 22 41 -15 73 -45 39z m39 -23 c1 -5 -6 -11 -15 -13 -11 -2 -18 3 -18 13 0 17 30 18 33 0z"/>
<path d="M2444 1800 l5 -45 -16 38 c-21 48 -33 47 -33 -4 0 -24 -4 -38 -10 -34 -5 3 -10 19 -10 36 0 16 -4 29 -10 29 -5 0 -10 -9 -10 -20 0 -11 -4 -20 -10 -20 -5 0 -10 7 -10 15 0 8 -6 15 -13 15 -16 0 -11 -67 6 -77 6 -4 8 2 4 18 -6 22 -5 23 8 6 13 -18 13 -18 18 0 4 15 5 14 6 -4 1 -17 5 -21 19 -16 9 4 19 10 22 14 3 5 16 6 28 3 17 -5 20 -10 12 -24 -5 -9 -7 -34 -3 -54 5 -32 9 -36 34 -34 21 2 29 8 30 23 1 16 2 17 6 3 2 -10 9 -18 15 -18 5 0 7 7 4 16 -3 9 -6 27 -6 40 0 17 -6 24 -20 24 -16 0 -20 -7 -20 -34 0 -35 -13 -55 -24 -37 -4 5 -1 13 5 17 8 4 7 9 -2 15 -12 8 -11 11 1 19 8 5 11 10 5 10 -5 0 -11 24 -13 52 -1 29 -7 57 -13 63 -8 7 -9 -3 -5 -35z m71 -89 c3 -5 1 -12 -5 -16 -5 -3 -10 1 -10 9 0 18 6 21 15 7z"/>
<path d="M2470 1821 c0 -10 7 -21 15 -25 8 -3 15 -10 15 -15 0 -6 -7 -7 -17 -4 -11 4 -14 3 -9 -5 9 -15 33 -15 42 0 4 6 -2 19 -14 29 -25 20 -29 31 -7 23 8 -4 15 -1 15 5 0 6 -9 11 -20 11 -13 0 -20 -7 -20 -19z"/>
<path d="M2273 1812 c0 -12 5 -22 9 -22 11 0 10 12 -2 30 -7 12 -9 10 -7 -8z"/>
<path d="M2808 1793 c-3 -4 1 -28 8 -53 13 -48 17 -46 14 10 -2 35 -14 59 -22 43z"/>
<path d="M2256 1763 c-6 -14 -5 -15 5 -6 7 7 10 15 7 18 -3 3 -9 -2 -12 -12z"/>
<path d="M2737 1743 c6 -42 23 -69 23 -37 0 15 2 16 10 4 14 -22 19 -9 11 30 -5 25 -13 36 -28 38 -20 3 -21 0 -16 -35z m28 18 c3 -5 1 -12 -5 -16 -5 -3 -10 1 -10 9 0 18 6 21 15 7z"/>
<path d="M2680 1748 c0 -39 10 -58 31 -58 14 0 19 7 19 28 0 15 -5 34 -11 42 -8 11 -9 5 -4 -22 4 -24 2 -38 -5 -38 -5 0 -10 10 -10 23 0 12 -5 29 -10 37 -8 12 -10 9 -10 -12z"/>
<path d="M2613 1753 c-18 -2 -33 -8 -33 -14 0 -5 4 -9 9 -9 5 0 12 -13 16 -30 9 -42 22 -38 17 5 -3 21 0 35 7 35 6 0 11 -13 11 -29 0 -34 10 -44 30 -30 12 7 12 9 1 9 -8 0 -11 6 -7 17 4 9 1 20 -6 25 -10 6 -10 10 2 18 17 11 17 11 -47 3z"/>
<path d="M2867 1743 c-4 -3 -7 -11 -7 -17 0 -6 5 -5 12 2 6 6 9 14 7 17 -3 3 -9 2 -12 -2z"/>
<path d="M2268 1732 c-10 -2 -18 -8 -18 -13 0 -11 11 -11 30 1 18 11 11 18 -12 12z"/>
<path d="M2300 1730 c0 -5 5 -10 10 -10 6 0 10 5 10 10 0 6 -4 10 -10 10 -5 0 -10 -4 -10 -10z"/>
<path d="M2550 1693 c1 -40 3 -45 11 -29 9 14 13 16 20 5 17 -28 19 0 3 35 -24 49 -34 45 -34 -11z"/>
<path d="M4180 1698 c0 -31 3 -39 10 -28 13 20 13 57 0 65 -6 4 -10 -11 -10 -37z"/>
<path d="M2350 1720 c0 -5 5 -10 11 -10 5 0 7 5 4 10 -3 6 -8 10 -11 10 -2 0 -4 -4 -4 -10z"/>
<path d="M2363 1703 c-24 -5 -27 -13 -17 -61 6 -27 9 -30 29 -22 13 5 25 6 28 3 4 -3 4 12 3 33 -5 55 -5 54 -13 53 -5 -1 -18 -4 -30 -6z m27 -41 c0 -19 -5 -29 -15 -29 -18 0 -19 9 -3 25 9 9 8 12 -6 12 -9 0 -14 5 -11 10 13 21 35 10 35 -18z"/>
<path d="M2417 1674 c2 -37 9 -52 18 -43 7 7 -6 79 -14 79 -4 0 -6 -16 -4 -36z"/>
<path d="M2847 1695 c-11 -8 -25 -11 -33 -8 -8 3 -14 0 -14 -6 0 -15 49 -10 62 6 16 19 6 24 -15 8z"/>
<path d="M2127 1686 c-14 -11 -17 -23 -13 -51 11 -65 24 -74 23 -16 -2 53 -1 54 33 67 l35 12 -30 1 c-16 0 -38 -6 -48 -13z"/>
<path d="M1840 1676 c-32 -12 -35 -16 -35 -52 0 -27 -6 -44 -20 -55 -16 -14 -17 -19 -6 -33 32 -39 77 -7 68 48 -5 30 -2 35 19 40 13 4 24 11 24 16 0 5 -13 4 -31 -2 -29 -10 -31 -13 -26 -49 6 -44 -14 -72 -36 -50 -9 10 -8 15 6 26 14 10 18 24 15 51 -3 37 -1 39 35 47 21 5 41 7 44 4 3 -3 8 -26 10 -50 6 -47 -9 -69 -30 -47 -9 9 -7 15 8 27 l20 15 -20 -4 c-27 -4 -32 -44 -7 -57 29 -16 54 16 46 60 -15 89 -16 90 -84 65z"/>
<path d="M2286 1675 c-13 -36 30 -86 48 -56 8 13 -4 42 -15 36 -4 -3 -5 -13 -2 -22 4 -11 3 -14 -5 -9 -18 11 -15 46 4 46 8 0 12 5 9 10 -9 15 -32 12 -39 -5z"/>
<path d="M2921 1674 c0 -11 3 -14 6 -6 3 7 2 16 -1 19 -3 4 -6 -2 -5 -13z"/>
<path d="M2240 1660 c-1 -22 -2 -23 -11 -7 -5 9 -13 17 -17 17 -12 0 -2 -69 11 -77 6 -4 8 2 4 18 l-6 24 19 -25 20 -25 0 35 c0 19 -5 42 -10 50 -8 12 -10 10 -10 -10z"/>
<path d="M4137 1674 c12 -3 24 -14 26 -25 4 -15 4 -14 3 3 -1 17 -8 23 -26 25 -21 1 -21 0 -3 -3z"/>
<path d="M2185 1630 c5 -30 4 -41 -4 -36 -6 4 -11 20 -11 37 0 16 -4 29 -10 29 -13 0 -13 -36 0 -61 6 -10 17 -19 25 -19 18 0 21 75 4 86 -8 5 -9 -6 -4 -36z"/>
<path d="M4208 1653 c7 -3 16 -2 19 1 4 3 -2 6 -13 5 -11 0 -14 -3 -6 -6z"/>
<path d="M4180 1620 c-6 -11 -21 -22 -34 -26 -24 -6 -24 -6 -8 -35 22 -38 59 -39 73 -2 8 21 7 28 -6 35 -24 14 -18 38 10 38 20 0 25 -5 25 -25 0 -16 6 -25 16 -25 14 0 14 3 4 15 -7 8 -9 15 -5 15 4 0 2 7 -5 15 -18 21 -57 19 -70 -5z m20 -53 c0 -31 -37 -31 -43 0 -3 19 0 23 19 23 18 0 24 -6 24 -23z"/>
<path d="M3950 1573 c0 -13 5 -23 10 -23 13 0 13 11 0 30 -8 12 -10 11 -10 -7z"/>
<path d="M1947 1560 c4 -14 -3 -28 -22 -44 -17 -15 -25 -30 -22 -42 4 -16 5 -15 6 4 0 12 6 22 12 22 27 0 51 61 30 74 -5 4 -7 -3 -4 -14z"/>
<path d="M3978 1527 c-3 -13 -1 -32 3 -43 6 -16 8 -15 8 8 1 14 4 33 7 42 3 9 2 16 -4 16 -5 0 -12 -10 -14 -23z"/>
<path d="M4120 1525 c0 -8 5 -15 10 -15 6 0 10 7 10 15 0 8 -4 15 -10 15 -5 0 -10 -7 -10 -15z"/>
<path d="M1928 1463 c7 -3 16 -2 19 1 4 3 -2 6 -13 5 -11 0 -14 -3 -6 -6z"/>
<path d="M3946 1231 c-87 -99 -388 -401 -411 -414 -11 -6 -42 -17 -70 -24 l-50 -13 47 5 c26 2 59 10 75 19 15 8 100 88 188 178 256 261 288 295 284 306 -2 5 -30 -20 -63 -57z"/>
<path d="M4354 1060 c0 -129 2 -182 3 -117 2 64 2 170 0 235 -1 64 -3 11 -3 -118z"/>
<path d="M1972 1125 c2 -15 18 -24 63 -37 33 -9 69 -16 80 -16 11 -1 -11 8 -50 19 -38 11 -76 28 -83 37 -13 16 -14 15 -10 -3z"/>
<path d="M2185 1055 c68 -18 103 -17 40 1 -27 7 -59 13 -70 13 -11 -1 3 -7 30 -14z"/>
<path d="M2296 1030 c12 -5 43 -11 70 -14 l49 -5 -50 13 c-27 8 -59 14 -70 14 -19 1 -19 0 1 -8z"/>
<path d="M1643 970 c0 -30 2 -43 4 -27 2 15 2 39 0 55 -2 15 -4 2 -4 -28z"/>
<path d="M2465 995 c28 -8 57 -14 65 -14 26 1 -22 16 -70 22 l-45 7 50 -15z"/>
<path d="M4000 970 c-11 -11 -20 -31 -20 -45 0 -31 41 -75 70 -75 26 0 70 43 70 68 0 59 -79 93 -120 52z m78 -6 c24 -17 30 -62 10 -82 -37 -37 -113 12 -89 57 10 18 37 40 51 41 3 0 16 -7 28 -16z"/>
<path d="M4015 930 c-13 -40 38 -68 64 -36 9 11 4 15 -26 21 -21 4 -32 10 -25 12 14 5 16 23 3 23 -5 0 -13 -9 -16 -20z m45 -36 c0 -2 -7 -4 -15 -4 -8 0 -15 4 -15 10 0 5 7 7 15 4 8 -4 15 -8 15 -10z"/>
<path d="M4066 942 c-3 -6 -1 -14 5 -17 15 -10 25 3 12 16 -7 7 -13 7 -17 1z"/>
<path d="M2551 976 c2 -2 130 -31 284 -65 375 -83 547 -121 565 -127 10 -3 11 -2 5 4 -5 5 -44 17 -85 26 -41 9 -113 26 -160 36 -47 11 -139 31 -205 45 -66 14 -179 39 -252 55 -125 29 -162 35 -152 26z"/>
<path d="M4159 904 c-11 -30 -3 -46 11 -24 10 16 13 50 5 50 -3 0 -10 -12 -16 -26z"/>
<path d="M3910 910 c-8 -5 -23 -11 -32 -14 -26 -8 -22 -22 12 -46 l29 -21 15 30 c9 16 13 37 10 45 -7 18 -12 19 -34 6z m2 -42 c-6 -6 -15 -8 -19 -4 -4 4 -1 11 7 16 19 12 27 3 12 -12z"/>
<path d="M4207 894 c-11 -14 -16 -28 -13 -31 6 -6 45 36 46 50 0 15 -15 6 -33 -19z"/>
<path d="M1642 860 c0 -14 2 -19 5 -12 2 6 2 18 0 25 -3 6 -5 1 -5 -13z"/>
<path d="M2031 849 c-18 -17 -20 -23 -10 -30 17 -10 53 12 57 35 5 23 -20 20 -47 -5z"/>
<path d="M3820 856 c0 -10 -7 -12 -22 -9 -30 7 -12 -12 20 -22 19 -5 22 -3 22 19 0 14 -4 26 -10 26 -5 0 -10 -6 -10 -14z"/>
<path d="M4228 853 c-19 -5 -25 -23 -9 -23 17 0 41 12 41 21 0 9 -4 10 -32 2z"/>
<path d="M2297 822 c-18 -19 -23 -42 -9 -42 16 0 52 32 52 46 0 20 -24 18 -43 -4z"/>
<path d="M3631 826 c-10 -12 -8 -19 8 -35 26 -26 26 -27 0 -34 -21 -6 -21 -10 -16 -89 l5 -83 -11 79 c-8 53 -17 82 -29 89 -22 14 -45 -5 -56 -47 l-8 -31 -15 29 c-19 40 -43 54 -63 36 -14 -11 -16 -31 -14 -119 3 -95 5 -106 22 -109 26 -5 44 22 38 56 -4 22 -2 25 9 15 17 -17 46 -17 52 0 3 6 6 1 6 -13 2 -45 51 -70 65 -34 5 13 9 14 21 4 10 -9 29 -10 58 -6 23 4 58 8 77 9 33 2 35 4 35 37 0 19 4 38 8 41 5 4 2 19 -7 35 -15 29 -15 29 -16 -33 0 -58 -11 -86 -25 -64 -3 6 -8 52 -12 104 -5 82 -4 95 11 100 12 5 23 -6 43 -42 l28 -49 15 52 c24 78 42 68 63 -38 10 -50 15 -96 12 -104 -11 -29 -30 -3 -40 54 -11 58 -11 58 -19 25 -5 -20 -16 -35 -27 -38 -25 -7 -24 -23 1 -23 11 0 20 5 20 10 0 6 5 10 10 10 6 0 10 -11 10 -24 0 -58 59 -56 61 3 1 36 1 36 8 6 6 -28 9 -30 55 -29 33 0 53 6 60 16 8 11 17 14 27 7 43 -27 109 11 109 65 0 27 -32 67 -75 93 -18 10 -17 11 10 10 25 -2 31 2 33 22 4 27 -20 51 -50 51 -11 0 -31 -12 -45 -26 -23 -23 -27 -24 -35 -10 -7 13 -18 15 -46 10 -60 -11 -65 -19 -59 -104 l5 -75 -12 68 c-7 38 -20 75 -29 84 -15 15 -18 15 -37 -2 -11 -10 -20 -29 -20 -42 0 -31 -12 -29 -32 7 -18 32 -55 41 -64 15 -5 -11 -10 -12 -25 -2 -10 6 -19 17 -19 23 0 13 -43 54 -57 54 -6 0 -16 -6 -22 -14z m52 -24 c10 -10 14 -21 11 -25 -8 -7 -54 22 -54 34 0 15 26 10 43 -9z m477 3 c16 -19 3 -40 -15 -25 -8 7 -19 9 -25 5 -19 -12 -10 -33 25 -55 53 -33 61 -94 16 -116 -38 -19 -91 13 -65 39 4 3 16 2 26 -4 23 -13 42 0 33 22 -3 8 -19 23 -36 33 -17 10 -35 29 -41 42 -22 49 48 100 82 59z m-120 -20 c0 -8 -11 -17 -25 -21 -18 -4 -25 -13 -25 -30 0 -19 5 -24 25 -24 16 0 25 -6 25 -15 0 -8 -9 -15 -21 -15 -16 0 -20 -5 -17 -27 3 -25 6 -28 36 -25 28 3 33 0 30 -14 -3 -19 -75 -41 -89 -27 -7 7 -29 144 -29 179 0 16 33 32 68 33 13 1 22 -5 22 -14z m-315 -45 c0 -9 -11 -16 -27 -18 -22 -3 -28 -9 -28 -28 0 -19 5 -24 25 -24 16 0 25 -6 25 -15 0 -8 -9 -15 -20 -15 -16 0 -20 -7 -20 -31 0 -28 3 -31 24 -27 14 3 30 2 37 -2 22 -14 -2 -30 -46 -30 l-44 0 -5 43 c-3 23 -7 67 -8 97 -3 53 -2 55 27 61 42 10 60 6 60 -11z m340 -2 c6 -13 24 -32 42 -43 40 -25 41 -33 3 -27 -21 3 -32 0 -36 -12 -4 -10 -18 -16 -35 -16 -36 0 -37 13 -4 28 38 18 26 62 -17 62 -26 0 -22 18 5 23 12 2 24 5 27 6 3 0 10 -9 15 -21z m-560 -59 l19 -40 19 50 c18 50 39 65 50 37 3 -8 9 -53 13 -100 6 -74 5 -86 -9 -86 -11 0 -17 15 -23 57 l-7 57 -16 -35 c-20 -42 -31 -42 -53 2 l-17 34 -1 -62 c0 -49 -3 -63 -15 -63 -8 0 -15 6 -16 13 -2 43 3 183 8 190 8 13 28 -9 48 -54z m245 -14 l0 -65 -30 0 c-34 0 -40 15 -10 23 11 3 23 12 26 21 8 20 -15 49 -32 42 -7 -3 -16 -1 -19 5 -4 5 2 12 12 15 10 3 25 9 33 14 8 5 16 9 18 9 1 1 2 -28 2 -64z"/>
<path d="M1857 818 c-44 -34 -63 -167 -29 -206 43 -50 105 -25 117 49 8 45 -2 59 -42 59 -16 0 -23 -6 -23 -20 0 -11 7 -20 15 -20 19 0 19 -11 1 -35 -12 -17 -16 -18 -31 -5 -13 11 -16 24 -11 59 6 45 29 91 46 91 5 0 12 -9 15 -20 3 -11 13 -20 21 -20 23 0 28 28 10 55 -18 28 -61 34 -89 13z"/>
<path d="M1985 788 c-5 -16 -25 -163 -25 -187 0 -23 74 -38 96 -21 20 17 5 40 -26 40 -24 0 -27 3 -22 25 3 18 11 25 28 25 17 0 24 6 24 20 0 13 -7 20 -20 20 -15 0 -20 7 -20 25 0 22 3 25 26 19 30 -8 49 12 32 33 -14 17 -87 17 -93 1z"/>
<path d="M2106 781 c-3 -5 -11 -52 -18 -105 -10 -82 -10 -99 2 -106 23 -14 30 -2 30 56 0 30 4 54 8 54 5 0 14 -24 21 -54 13 -57 29 -80 48 -68 11 7 35 201 26 215 -2 4 -10 7 -17 7 -16 0 -25 -30 -27 -80 0 -29 -2 -32 -9 -15 -5 11 -14 39 -20 63 -10 39 -31 55 -44 33z m34 -65 c0 -3 -4 -8 -10 -11 -5 -3 -10 -1 -10 4 0 6 5 11 10 11 6 0 10 -2 10 -4z m50 -88 c0 -19 -2 -20 -10 -8 -13 19 -13 30 0 30 6 0 10 -10 10 -22z"/>
<path d="M4216 774 c-19 -18 -19 -20 -6 -45 6 -11 21 -19 35 -19 20 0 45 24 45 44 0 10 -32 36 -45 36 -7 0 -21 -7 -29 -16z m49 -24 c0 -16 -6 -26 -18 -28 -19 -4 -32 20 -23 44 9 25 41 13 41 -16z"/>
<path d="M4231 753 c-1 -16 5 -23 17 -23 10 0 13 3 6 8 -6 4 -14 14 -17 22 -4 10 -6 8 -6 -7z"/>
<path d="M2245 703 c-4 -37 -7 -86 -8 -108 l-2 -40 50 0 c38 0 50 4 50 15 0 9 -11 16 -27 18 -22 3 -28 9 -28 28 0 19 5 24 25 24 18 0 25 5 25 20 0 14 -7 20 -24 20 -19 0 -22 4 -19 24 4 19 11 24 32 23 20 -2 26 3 26 18 0 17 -8 20 -47 23 l-46 3 -7 -68z"/>
<path d="M2366 743 c-2 -10 -7 -57 -11 -105 -6 -76 -5 -89 10 -94 22 -9 27 -2 28 40 1 45 13 47 22 4 10 -44 24 -61 40 -48 10 8 11 20 3 46 -7 28 -6 43 7 70 18 39 12 80 -15 94 -31 17 -78 12 -84 -7z m62 -50 c-4 -39 -28 -42 -28 -4 0 21 5 31 16 31 11 0 14 -8 12 -27z"/>
<path d="M2509 678 c-12 -40 -24 -90 -27 -112 -4 -33 -3 -38 14 -34 11 2 20 13 22 26 5 34 52 31 52 -3 0 -18 5 -25 20 -25 25 0 25 15 5 130 -8 47 -15 86 -15 88 0 1 -11 2 -25 2 -21 0 -27 -8 -46 -72z m51 -28 c0 -29 -3 -38 -14 -34 -13 5 -13 21 0 62 7 24 14 11 14 -28z"/>
<path d="M2605 730 c-9 -14 3 -30 23 -30 15 0 17 -12 17 -87 0 -72 3 -88 15 -88 12 0 16 18 18 87 3 81 4 87 25 90 12 2 22 10 22 18 0 11 -14 16 -57 18 -32 2 -59 -2 -63 -8z"/>
<path d="M2747 733 c-3 -4 -7 -53 -8 -108 l-4 -100 50 0 c43 0 50 3 50 20 0 14 -8 21 -30 25 -37 6 -45 40 -10 40 13 0 25 6 28 14 7 18 -1 26 -25 26 -13 0 -18 7 -18 25 0 22 4 25 28 23 21 -2 27 1 27 17 0 16 -8 21 -42 23 -22 2 -43 -1 -46 -5z"/>
<path d="M2857 733 c-4 -3 -7 -43 -7 -87 0 -99 15 -129 63 -124 45 4 58 36 55 133 -2 63 -6 80 -18 80 -12 0 -16 -18 -20 -85 -4 -67 -8 -85 -20 -85 -12 0 -16 18 -18 88 -2 63 -6 87 -16 87 -7 0 -16 -3 -19 -7z"/>
<path d="M2997 733 c-4 -3 -7 -53 -7 -110 0 -96 1 -103 20 -103 17 0 20 7 20 41 0 45 15 45 25 -2 7 -33 30 -48 47 -31 6 6 4 20 -7 42 -13 26 -15 38 -6 57 18 40 13 80 -11 97 -23 16 -69 21 -81 9z m58 -63 c0 -13 -6 -25 -12 -27 -9 -3 -13 6 -13 27 0 21 4 30 13 28 6 -3 12 -15 12 -28z"/>
<path d="M3176 692 c-3 -4 -2 -43 1 -85 5 -67 8 -77 25 -77 10 0 30 11 43 25 49 49 23 145 -39 145 -14 0 -27 -4 -30 -8z m52 -34 c16 -16 15 -60 -3 -84 -13 -18 -14 -16 -15 23 0 23 -3 48 -6 57 -7 19 7 21 24 4z"/>
<path d="M3288 693 c-2 -4 -2 -41 0 -80 l4 -73 39 0 c28 0 39 4 39 15 0 9 -9 15 -25 15 -18 0 -25 5 -25 20 0 14 7 20 21 20 27 0 20 23 -10 30 -32 7 -30 24 5 30 16 3 29 10 29 15 0 12 -72 19 -77 8z"/>
<path d="M1642 660 c0 -14 2 -19 5 -12 2 6 2 18 0 25 -3 6 -5 1 -5 -13z"/>
<path d="M4346 655 c-9 -26 -7 -32 5 -12 6 10 9 21 6 23 -2 3 -7 -2 -11 -11z"/>
<path d="M4026 520 l-27 -31 -34 21 c-36 22 -64 21 -86 -6 -17 -20 -5 -28 20 -12 18 11 26 10 52 -4 43 -25 61 -23 91 12 27 31 27 31 64 15 33 -14 39 -14 61 0 12 9 23 20 23 25 0 13 -6 13 -29 -2 -15 -9 -25 -9 -46 0 -40 19 -59 15 -89 -18z"/>
<path d="M2395 479 c-11 -17 1 -21 15 -4 8 9 8 15 2 15 -6 0 -14 -5 -17 -11z"/>
<path d="M2960 482 c0 -5 7 -13 16 -16 10 -4 14 -1 12 6 -5 15 -28 23 -28 10z"/>
<path d="M3467 483 c-13 -13 -7 -20 18 -20 20 0 23 2 14 13 -13 15 -22 17 -32 7z"/>
<path d="M2225 440 c-11 -13 -15 -27 -11 -44 6 -25 37 -42 56 -31 18 11 11 27 -9 20 -21 -6 -34 15 -25 40 4 10 13 13 25 10 23 -8 26 10 3 19 -21 8 -18 9 -39 -14z"/>
<path d="M2303 453 c-15 -5 -18 -93 -3 -93 6 0 10 10 10 23 l0 22 19 -24 18 -23 0 45 c1 45 -12 60 -44 50z m29 -28 c0 -5 -5 -11 -11 -13 -6 -2 -11 4 -11 13 0 9 5 15 11 13 6 -2 11 -8 11 -13z"/>
<path d="M2458 453 c-14 -3 -18 -15 -18 -49 0 -40 2 -44 25 -44 31 0 33 15 3 25 l-23 8 23 4 c12 2 22 8 22 13 0 5 -10 11 -22 13 l-23 4 23 8 c12 4 22 11 22 16 0 9 -4 10 -32 2z"/>
<path d="M2615 454 c-5 -2 -10 -23 -9 -46 1 -35 5 -44 21 -46 26 -4 45 21 41 54 -3 26 -31 45 -53 38z m35 -50 c0 -13 -4 -24 -9 -24 -10 0 -21 47 -13 54 10 11 22 -6 22 -30z"/>
<path d="M2763 444 c-17 -13 -17 -15 5 -33 28 -24 28 -34 1 -26 -16 5 -20 3 -17 -6 3 -8 16 -14 29 -14 32 0 40 40 10 50 -12 3 -21 11 -21 16 0 6 9 7 20 4 11 -3 20 -2 20 3 0 17 -28 21 -47 6z"/>
<path d="M2859 426 c-1 -20 -2 -40 -3 -46 -1 -5 3 -9 9 -7 5 1 8 11 7 22 -2 19 -2 19 11 3 8 -10 17 -18 20 -18 3 0 8 8 10 18 3 10 5 6 6 -10 2 -47 21 -31 21 16 0 54 -16 68 -31 29 -11 -27 -11 -27 -19 -7 -15 38 -30 38 -31 0z"/>
<path d="M3028 454 c-10 -19 -9 -82 1 -89 7 -4 11 5 11 22 1 26 2 27 14 10 14 -18 15 -18 25 0 9 16 10 15 11 -9 0 -16 5 -28 10 -28 13 0 13 87 0 95 -5 3 -16 -7 -24 -22 -8 -15 -15 -23 -16 -17 0 16 -26 48 -32 38z"/>
<path d="M3124 445 c-3 -7 -4 -28 -2 -47 2 -28 7 -34 31 -36 15 -2 27 1 27 7 0 6 -9 11 -20 11 -11 0 -20 5 -20 10 0 6 7 10 15 10 8 0 15 5 15 10 0 6 -7 10 -15 10 -24 0 -17 18 8 22 20 3 19 4 -6 10 -19 3 -30 1 -33 -7z"/>
<path d="M3202 448 c-18 -18 -15 -36 8 -43 11 -3 20 -11 20 -16 0 -6 -9 -7 -21 -4 -16 5 -20 3 -17 -6 3 -8 16 -14 29 -14 32 0 40 40 10 50 -12 3 -21 11 -21 16 0 6 9 7 20 4 24 -7 27 10 4 19 -20 8 -18 8 -32 -6z"/>
<path d="M3296 452 c-3 -3 -6 -25 -6 -49 0 -36 3 -43 19 -43 37 0 64 46 43 76 -8 13 -48 24 -56 16z m42 -45 c-5 -34 -28 -33 -28 2 0 23 4 29 16 24 8 -3 14 -15 12 -26z"/>
<path d="M3375 452 c-9 -10 -5 -92 5 -92 6 0 10 10 10 23 l0 22 20 -25 c10 -14 22 -21 26 -17 4 4 3 12 -4 19 -6 6 -8 23 -5 38 4 23 1 28 -21 32 -14 3 -28 3 -31 0z m37 -27 c0 -5 -5 -11 -11 -13 -6 -2 -11 4 -11 13 0 9 5 15 11 13 6 -2 11 -8 11 -13z"/>
<path d="M3538 454 c-5 -4 -8 -27 -8 -51 0 -39 2 -43 24 -43 14 0 28 5 31 10 3 6 -3 10 -14 10 -16 0 -20 8 -23 41 -2 22 -6 37 -10 33z"/>
<path d="M3596 450 c-2 -3 -1 -24 2 -47 4 -37 7 -43 28 -43 13 0 24 5 24 10 0 6 -9 10 -20 10 -11 0 -20 5 -20 10 0 6 9 10 20 10 27 0 25 18 -2 23 l-23 4 23 8 c12 4 22 10 22 14 0 7 -51 8 -54 1z"/>
<path d="M3669 444 c-11 -14 -10 -19 9 -34 28 -23 28 -33 1 -25 -16 5 -20 3 -17 -6 3 -8 16 -14 29 -14 32 0 40 40 10 50 -12 3 -21 11 -21 16 0 6 9 7 20 4 24 -7 27 10 4 19 -21 8 -20 8 -35 -10z"/>
<path d="M3760 431 c0 -34 19 -53 22 -22 0 12 1 26 2 33 1 6 -5 13 -11 16 -9 2 -13 -7 -13 -27z"/>
<path d="M2370 405 c0 -41 2 -45 24 -45 14 0 28 5 31 10 3 6 -3 10 -14 10 -12 0 -21 5 -21 10 0 6 7 10 15 10 8 0 15 5 15 10 0 6 -7 10 -15 10 -23 0 -18 18 8 23 16 3 13 5 -10 6 -33 1 -33 0 -33 -44z"/>
<path d="M2505 440 c3 -5 13 -6 22 -3 14 5 13 0 -5 -29 -12 -19 -22 -38 -22 -42 0 -10 58 -7 65 4 3 6 -3 10 -14 10 -26 0 -26 5 0 41 l20 29 -36 0 c-20 0 -34 -4 -30 -10z"/>
<path d="M2690 405 c0 -41 2 -45 25 -45 14 0 25 5 25 10 0 6 -7 10 -15 10 -8 0 -15 5 -15 10 0 6 7 10 15 10 24 0 18 18 -7 23 -23 4 -23 4 2 15 l25 11 -27 0 c-27 1 -28 -1 -28 -44z"/>
<path d="M2960 405 c0 -41 2 -45 25 -45 14 0 25 5 25 10 0 6 -9 10 -20 10 -11 0 -20 5 -20 10 0 6 7 10 15 10 21 0 19 18 -2 23 -15 3 -14 6 7 15 l25 11 -27 0 c-27 1 -28 -1 -28 -44z"/>
<path d="M3457 443 c-14 -13 -7 -71 9 -77 25 -10 33 -7 44 15 17 32 4 69 -24 69 -12 0 -26 -3 -29 -7z m38 -33 c0 -13 -5 -25 -11 -27 -14 -5 -25 22 -17 42 8 23 28 12 28 -15z"/>
<path d="M4226 394 c-5 -14 -4 -15 9 -4 17 14 19 20 6 20 -5 0 -12 -7 -15 -16z"/>
<path d="M3760 370 c0 -5 4 -10 9 -10 6 0 13 5 16 10 3 6 -1 10 -9 10 -9 0 -16 -4 -16 -10z"/>
<path d="M1798 353 c7 -3 16 -2 19 1 4 3 -2 6 -13 5 -11 0 -14 -3 -6 -6z"/>
<path d="M1850 326 c0 -2 8 -10 18 -17 15 -13 16 -12 3 4 -13 16 -21 21 -21 13z"/>
<path d="M1916 289 c6 -10 94 -39 94 -31 0 4 -22 14 -50 23 -27 8 -47 12 -44 8z"/>
<path d="M4076 291 c-4 -5 3 -7 14 -4 23 6 26 13 6 13 -8 0 -17 -4 -20 -9z"/>
<path d="M4020 270 c-8 -5 -10 -10 -5 -10 6 0 17 5 25 10 8 5 11 10 5 10 -5 0 -17 -5 -25 -10z"/>
<path d="M2042 245 c7 -7 1788 -8 1795 -1 4 3 -400 6 -897 6 -497 0 -901 -2 -898 -5z"/>
<path d="M3873 243 c15 -2 37 -2 50 0 12 2 0 4 -28 4 -27 0 -38 -2 -22 -4z"/>
</g>
</svg>